<svg width="33" height="26" viewBox="0 0 33 26" fill="none" xmlns="http://www.w3.org/2000/svg">
<path d="M4.95 11.375C6.77016 11.375 8.25 9.91758 8.25 8.125C8.25 6.33242 6.77016 4.875 4.95 4.875C3.12984 4.875 1.65 6.33242 1.65 8.125C1.65 9.91758 3.12984 11.375 4.95 11.375ZM28.05 11.375C29.8702 11.375 31.35 9.91758 31.35 8.125C31.35 6.33242 29.8702 4.875 28.05 4.875C26.2298 4.875 24.75 6.33242 24.75 8.125C24.75 9.91758 26.2298 11.375 28.05 11.375ZM29.7 13H26.4C25.4925 13 24.6727 13.3605 24.0745 13.9445C26.1525 15.0668 27.6272 17.093 27.9469 19.5H31.35C32.2627 19.5 33 18.7738 33 17.875V16.25C33 14.4574 31.5202 13 29.7 13ZM16.5 13C19.6917 13 22.275 10.4559 22.275 7.3125C22.275 4.16914 19.6917 1.625 16.5 1.625C13.3083 1.625 10.725 4.16914 10.725 7.3125C10.725 10.4559 13.3083 13 16.5 13ZM20.46 14.625H20.032C18.9595 15.1328 17.7684 15.4375 16.5 15.4375C15.2316 15.4375 14.0456 15.1328 12.968 14.625H12.54C9.26062 14.625 6.6 17.2453 6.6 20.475V21.9375C6.6 23.2832 7.70859 24.375 9.075 24.375H23.925C25.2914 24.375 26.4 23.2832 26.4 21.9375V20.475C26.4 17.2453 23.7394 14.625 20.46 14.625ZM8.92547 13.9445C8.32734 13.3605 7.5075 13 6.6 13H3.3C1.47984 13 0 14.4574 0 16.25V17.875C0 18.7738 0.737344 19.5 1.65 19.5H5.04797C5.37281 17.093 6.8475 15.0668 8.92547 13.9445Z" fill="#5C5C5C"/>
</svg>
