<svg width="53" height="53" viewBox="0 0 53 53" fill="none" xmlns="http://www.w3.org/2000/svg">
<g clip-path="url(#clip0)">
<path d="M49.0649 24.4631C46.6443 21.213 42.5167 19.5639 38.794 18.262C35.139 17.0179 29.883 15.6098 25.9289 16.4296C26.1603 10.9421 24.1544 6.10072 16.7767 7.1038C16.3041 7.16166 15.9473 7.51849 15.8316 7.87532C7.80772 12.6588 3.20751 23.1611 0.902584 31.7828C-0.447582 36.9134 -1.45056 47.599 6.93011 45.8342C13.7774 44.4165 18.3197 37.9839 21.3865 31.6092C26.2857 33.5573 31.3006 35.0329 36.441 36.2094C40.8097 37.2123 46.9432 38.7458 51.0806 36.2094C55.5554 33.4898 51.0709 27.1152 49.0649 24.4631ZM3.56434 43.1146C3.56434 43.1146 3.56434 43.1725 3.56434 43.1146C3.20751 42.941 3.03392 42.5263 2.79282 42.1694C5.5703 37.2703 9.22539 33.2005 12.5333 28.5906C15.8412 23.9326 18.9659 17.7893 20.7404 12.0029C18.1366 23.2286 10.8263 34.734 3.56434 43.1146ZM23.923 25.5817C23.9809 25.466 23.9809 25.4081 24.0387 25.2827C24.1545 24.9259 24.2702 24.5787 24.3956 24.2219C24.4534 24.2219 24.4534 24.2797 24.5113 24.2797C29.1115 25.7553 33.6634 27.2887 38.1479 29.0632C40.9832 30.182 43.9343 31.7153 46.8855 32.7859C38.9774 31.2524 31.831 26.7679 23.923 25.5817Z" fill="#F4FAFF"/>
</g>
<defs>
<clipPath id="clip0">
<rect width="53" height="53" fill="white"/>
</clipPath>
</defs>
</svg>
