<svg height="512pt" viewBox="0 0 512 512.00072" width="512pt" xmlns="http://www.w3.org/2000/svg"><path d="m486.398438 128-230.398438 8.535156-17.066406-.597656-213.332032-7.9375 213.332032-110.589844 17.066406-8.875zm0 0" fill="#ad1457"/><path d="m443.734375 128-209.066406 7.9375-209.066407-7.9375 209.066407-110.589844zm0 0" fill="#e91e63"/><path d="m145.066406 332.800781h221.867188c9.425781 0 17.066406 7.640625 17.066406 17.066407 0 9.425781-7.640625 17.066406-17.066406 17.066406h-221.867188c-9.425781 0-17.066406-7.640625-17.066406-17.066406 0-9.425782 7.640625-17.066407 17.066406-17.066407zm0 0" fill="#4e342e"/><path d="m145.066406 332.800781h196.265625c9.425781 0 17.066407 7.640625 17.066407 17.066407 0 9.425781-7.640626 17.066406-17.066407 17.066406h-196.265625c-9.425781 0-17.066406-7.640625-17.066406-17.066406 0-9.425782 7.640625-17.066407 17.066406-17.066407zm0 0" fill="#795548"/><path d="m25.601562 128h51.199219v51.199219c0 14.140625-11.460937 25.601562-25.601562 25.601562-14.136719 0-25.597657-11.460937-25.597657-25.601562zm0 0" fill="#e91e63"/><path d="m76.800781 128h51.199219v51.199219c0 14.140625-11.460938 25.601562-25.601562 25.601562-14.136719 0-25.597657-11.460937-25.597657-25.601562zm0 0" fill="#ffeb3a"/><path d="m128 128h51.199219v51.199219c0 14.140625-11.460938 25.601562-25.597657 25.601562-14.140624 0-25.601562-11.460937-25.601562-25.601562zm0 0" fill="#e91e63"/><path d="m179.199219 128h51.199219v51.199219c0 14.140625-11.460938 25.601562-25.597657 25.601562-14.140625 0-25.601562-11.460937-25.601562-25.601562zm0 0" fill="#ffeb3a"/><path d="m230.398438 128h51.203124v51.199219c0 14.140625-11.460937 25.601562-25.601562 25.601562-14.136719 0-25.601562-11.460937-25.601562-25.601562zm0 0" fill="#e91e63"/><path d="m281.601562 128h51.199219v51.199219c0 14.140625-11.460937 25.601562-25.601562 25.601562-14.136719 0-25.597657-11.460937-25.597657-25.601562zm0 0" fill="#ffeb3a"/><path d="m332.800781 128h51.199219v51.199219c0 14.140625-11.460938 25.601562-25.601562 25.601562-14.136719 0-25.597657-11.460937-25.597657-25.601562zm0 0" fill="#e91e63"/><path d="m384 128h51.199219v51.199219c0 14.140625-11.460938 25.601562-25.597657 25.601562-14.140624 0-25.601562-11.460937-25.601562-25.601562zm0 0" fill="#ffeb3a"/><path d="m486.398438 128v51.199219c0 14.140625-11.460938 25.601562-25.597657 25.601562-14.140625 0-25.601562-11.460937-25.601562-25.601562v-51.199219zm0 0" fill="#ad1457"/><path d="m460.800781 128v51.199219c.003907 9.152343-4.875 17.613281-12.800781 22.1875-7.925781-4.574219-12.804688-13.035157-12.800781-22.1875v-51.199219zm0 0" fill="#e91e63"/><path d="m503.46875 494.933594h-34.136719v-187.734375c0-4.710938-3.820312-8.53125-8.53125-8.53125-4.714843 0-8.535156 3.820312-8.535156 8.53125v102.402343h-65.253906c-11.082031.011719-20.0625 8.996094-20.078125 20.078126v65.253906h-38.835938l-63.5625-71.515625v-47.949219h102.398438c14.136718 0 25.601562-11.464844 25.601562-25.601562 0-14.136719-11.464844-25.601563-25.601562-25.601563h-102.398438v-112.144531c6.625-1.722656 12.574219-5.410156 17.066406-10.582032 6.398438 7.488282 15.75 11.796876 25.597657 11.796876 9.847656 0 19.203125-4.308594 25.601562-11.796876 6.398438 7.488282 15.753907 11.796876 25.597657 11.796876 9.847656 0 19.203124-4.308594 25.601562-11.796876 6.398438 7.488282 15.753906 11.796876 25.601562 11.796876 9.847657 0 19.199219-4.308594 25.597657-11.796876 9.292969 10.785157 24.320312 14.632813 37.652343 9.648438 13.332032-4.988281 22.144532-17.753906 22.082032-31.988281v-51.199219c0-.128906-.066406-.238281-.078125-.367188-.042969-.8125-.203125-1.621093-.476563-2.386718-.078125-.214844-.085937-.453125-.179687-.660156-.414063-.933594-.992188-1.785157-1.707031-2.515626-.195313-.207031-.453126-.324218-.664063-.511718-.460937-.433594-.964844-.816406-1.511719-1.136719l-230.398437-119.464844c-2.460938-1.277343-5.390625-1.277343-7.851563 0l-230.398437 119.464844c-.546875.320313-1.054688.703125-1.511719 1.136719-.214844.1875-.46875.304687-.664062.511718-.714844.730469-1.292969 1.582032-1.707032 2.515626-.09375.207031-.105468.445312-.179687.660156-.273438.765625-.4375 1.574218-.480469 2.386718 0 .128907-.074219.238282-.074219.367188v51.199219c-.0625 14.234375 8.75 27 22.082031 31.988281 13.332032 4.984375 28.359376 1.136719 37.652344-9.648438 6.398438 7.488282 15.75 11.796876 25.597656 11.796876 9.847657 0 19.203126-4.308594 25.601563-11.796876 6.398437 7.488282 15.75 11.796876 25.597656 11.796876 9.847657 0 19.203125-4.308594 25.601563-11.796876 6.398437 7.488282 15.753906 11.796876 25.601562 11.796876 9.84375 0 19.199219-4.308594 25.597656-11.796876 4.492188 5.171876 10.441407 8.859376 17.066407 10.582032v112.144531h-102.382813c-14.136718 0-25.597656 11.464844-25.597656 25.601563 0 14.136718 11.460938 25.601562 25.597656 25.601562h102.402344v47.949219l-63.566406 71.515625h-38.835938v-65.253906c-.011718-11.082032-8.996094-20.066407-20.078125-20.078126h-65.253906v-102.402343c0-4.710938-3.820313-8.53125-8.535156-8.53125-4.710938 0-8.53125 3.820312-8.53125 8.53125v187.734375h-34.132813c-4.714844 0-8.535156 3.820312-8.535156 8.535156 0 4.710938 3.820312 8.53125 8.535156 8.53125h494.933594c4.710938 0 8.53125-3.820312 8.53125-8.53125 0-4.714844-3.820312-8.535156-8.53125-8.535156zm-196.269531-298.667969c-9.425781 0-17.066407-7.640625-17.066407-17.066406v-42.664063h34.132813v42.664063c0 9.425781-7.640625 17.066406-17.066406 17.066406zm51.199219 0c-9.421876 0-17.066407-7.640625-17.066407-17.066406v-42.664063h34.136719v42.664063c0 9.425781-7.644531 17.066406-17.070312 17.066406zm51.203124 0c-9.425781 0-17.066406-7.640625-17.066406-17.066406v-42.664063h34.132813v42.664063c0 9.425781-7.640625 17.066406-17.066407 17.066406zm68.265626-17.066406c0 9.425781-7.640626 17.066406-17.066407 17.066406s-17.066406-7.640625-17.066406-17.066406v-42.664063h34.132813zm-221.867188-161.058594 195.414062 101.328125h-390.828124zm-204.800781 178.125c-9.425781 0-17.066407-7.640625-17.066407-17.066406v-42.664063h34.132813v42.664063c0 9.425781-7.640625 17.066406-17.066406 17.066406zm51.199219 0c-9.421876 0-17.066407-7.640625-17.066407-17.066406v-42.664063h34.136719v42.664063c0 9.425781-7.644531 17.066406-17.070312 17.066406zm51.203124 0c-9.425781 0-17.066406-7.640625-17.066406-17.066406v-42.664063h34.132813v42.664063c0 9.425781-7.640625 17.066406-17.066407 17.066406zm51.199219 0c-9.425781 0-17.066406-7.640625-17.066406-17.066406v-42.664063h34.132813v42.664063c0 9.425781-7.640626 17.066406-17.066407 17.066406zm34.132813-17.066406v-42.664063h34.132812v42.664063c0 9.425781-7.640625 17.066406-17.066406 17.066406s-17.066406-7.640625-17.066406-17.066406zm-102.398438 170.667969c0-4.710938 3.820313-8.53125 8.53125-8.53125h221.867188c4.714844 0 8.535156 3.820312 8.535156 8.53125 0 4.714843-3.820312 8.535156-8.535156 8.535156h-221.867188c-4.710937 0-8.53125-3.820313-8.53125-8.535156zm247.464844 79.8125c0-1.664063 1.347656-3.011719 3.011719-3.011719h65.253906v68.265625h-68.265625zm-78.738281 65.253906h-40.726563v-45.816406zm-57.792969-45.816406v45.816406h-40.730469zm-187.734375-22.449219h65.253906c1.664063 0 3.011719 1.347656 3.011719 3.011719v65.253906h-68.265625zm0 0"/></svg>