<?xml version="1.0" encoding="iso-8859-1"?>
<!-- Generator: Adobe Illustrator 19.0.0, SVG Export Plug-In . SVG Version: 6.00 Build 0)  -->
<svg version="1.1" id="Layer_1" xmlns="http://www.w3.org/2000/svg" xmlns:xlink="http://www.w3.org/1999/xlink" x="0px" y="0px"
	 viewBox="0 0 290.625 290.625" style="enable-background:new 0 0 290.625 290.625;" xml:space="preserve">
<g>
	<g>
		<g>
			<rect x="37.5" y="281.25" width="140.625" height="9.375"/>
			<path d="M37.5,169.027C16.439,171.37,0,189.262,0,210.938c0,23.259,18.928,42.188,42.188,42.188H45.9
				c3.919,5.995,9.042,11.119,15.038,15.038v8.4h28.125h37.5h28.125v-8.4c14.091-9.216,23.438-25.106,23.438-43.163v-60.938H37.5
				V169.027z M46.874,173.438L46.874,173.438H168.75V225c0,23.259-18.928,42.188-42.188,42.188h-37.5
				c-23.259,0-42.188-18.928-42.188-42.188V173.438z M9.375,210.938c0-16.495,12.248-30.15,28.125-32.437V225
				c0,6.6,1.294,12.891,3.563,18.694C23.494,243.094,9.375,228.652,9.375,210.938z"/>
			<path d="M121.875,140.625h4.688c2.583,0,4.688,2.105,4.688,4.688v9.375h9.375v-9.375c0-7.753-6.309-14.063-14.063-14.063h-4.688
				c-2.583,0-4.688-2.105-4.688-4.688s2.105-4.688,4.688-4.688h32.813c7.753,0,14.063-6.309,14.063-14.063
				c0-7.754-6.309-14.063-14.063-14.063H150c-2.583,0-4.688-2.105-4.688-4.688v-37.5h-9.375v37.5
				c0,7.753,6.309,14.063,14.063,14.063h4.688c2.583,0,4.688,2.105,4.688,4.688s-2.105,4.688-4.688,4.688h-32.813
				c-7.753,0-14.063,6.309-14.063,14.063C107.812,134.316,114.122,140.625,121.875,140.625z"/>
			<path d="M60.938,117.188h4.688c2.583,0,4.688,2.105,4.688,4.688v32.813h9.375v-32.813c0-7.753-6.309-14.063-14.063-14.063h-4.688
				c-2.583,0-4.688-2.105-4.688-4.688s2.105-4.688,4.688-4.688H93.75c7.753,0,14.063-6.309,14.063-14.063
				c0-7.754-6.309-14.063-14.063-14.063h-4.688c-2.583,0-4.688-2.105-4.688-4.688v-14.06H75v14.063
				c0,7.753,6.309,14.063,14.063,14.063h4.688c2.583,0,4.688,2.105,4.688,4.688s-2.105,4.688-4.688,4.688H60.938
				c-7.753,0-14.063,6.309-14.063,14.063C46.875,110.882,53.184,117.188,60.938,117.188z"/>
			<path d="M271.875,153.834v-9.45c0-3.717,1.852-7.177,4.945-9.239c5.709-3.802,9.117-10.172,9.117-17.034V98.438h-28.125v-24.3
				c3.342-1.191,6.075-3.6,7.711-6.703c1.364,0.422,2.761,0.698,4.177,0.698c3.6,0,7.2-1.369,9.942-4.111
				c3.82-3.816,4.917-9.286,3.417-14.119c4.472-2.362,7.566-7.003,7.566-12.403s-3.094-10.041-7.57-12.398
				c1.5-4.833,0.403-10.298-3.417-14.119c-3.82-3.82-9.291-4.917-14.119-3.417C263.166,3.094,258.525,0,253.125,0
				c-5.4,0-10.041,3.094-12.398,7.566c-4.828-1.5-10.298-0.403-14.119,3.417c-3.82,3.816-4.917,9.286-3.417,14.119
				c-4.472,2.358-7.566,6.998-7.566,12.398s3.094,10.041,7.57,12.398c-1.5,4.833-0.403,10.303,3.417,14.119
				c2.742,2.742,6.342,4.111,9.942,4.111c1.416,0,2.813-0.277,4.177-0.698c1.636,3.108,4.369,5.513,7.711,6.703v24.305h-28.125
				v19.673c0,6.858,3.408,13.228,9.117,17.039c3.094,2.062,4.941,5.517,4.941,9.239v9.45c0,2.512-0.867,4.973-2.433,6.938
				c-10.523,13.148-16.317,29.667-16.317,46.514v43.425c0,11.498,2.719,23.016,7.861,33.3l3.305,6.609h52.664l3.309-6.609
				c5.142-10.284,7.861-21.802,7.861-33.3v-43.425c0-16.842-5.794-33.366-16.317-46.514
				C272.742,158.808,271.875,156.347,271.875,153.834z M273.014,57.389c-1.594,1.589-4.013,1.706-5.827,0.534v-6.361h6.361
				C274.72,53.381,274.603,55.795,273.014,57.389z M267.187,17.077c1.815-1.172,4.233-1.055,5.827,0.534
				c1.589,1.594,1.706,4.008,0.534,5.827h-6.361V17.077z M266.325,32.813h0.862h9.375c2.583,0,4.688,2.105,4.688,4.688
				s-2.105,4.688-4.688,4.688h-9.375h-0.862c0.525-1.472,0.862-3.037,0.862-4.688S266.85,34.284,266.325,32.813z M233.236,17.611
				c1.589-1.594,4.008-1.711,5.827-0.534v6.361h-6.361C231.53,21.619,231.647,19.205,233.236,17.611z M239.063,57.923
				c-1.815,1.172-4.233,1.055-5.827-0.534c-1.589-1.589-1.711-4.008-0.534-5.827h6.361V57.923z M239.925,42.188h-0.862h-9.375
				c-2.583,0-4.688-2.105-4.688-4.688s2.105-4.688,4.688-4.688h9.375h0.862c-0.525,1.472-0.862,3.037-0.862,4.688
				S239.4,40.716,239.925,42.188z M248.438,23.438v-9.375c0-2.583,2.105-4.688,4.688-4.688s4.688,2.105,4.688,4.688v9.375V24.3
				c-1.472-0.525-3.037-0.862-4.688-0.862s-3.216,0.337-4.688,0.862V23.438z M253.125,32.812c2.583,0,4.688,2.105,4.688,4.688
				s-2.105,4.688-4.688,4.688s-4.688-2.105-4.688-4.688S250.542,32.812,253.125,32.812z M248.437,60.938v-9.375V50.7
				c1.472,0.525,3.037,0.862,4.688,0.862s3.216-0.337,4.688-0.862v0.862v9.376c0,2.583-2.105,4.688-4.688,4.688
				S248.437,63.521,248.437,60.938z M281.251,250.716L281.251,250.716c-0.001,10.055-2.378,20.119-6.873,29.109l-0.712,1.425H232.58
				l-0.713-1.425c-4.491-8.991-6.867-19.059-6.867-29.109v-43.425c0-14.723,5.067-29.166,14.259-40.659
				c2.897-3.619,4.491-8.161,4.491-12.797v-9.45c0-6.863-3.408-13.233-9.117-17.039c-3.094-2.058-4.945-5.513-4.945-9.234v-10.298
				h46.875v10.298c0,3.717-1.852,7.177-4.945,9.239c-5.709,3.802-9.117,10.172-9.117,17.034v9.45c0,4.631,1.594,9.173,4.491,12.792
				c9.192,11.498,14.259,25.941,14.259,40.664V250.716z"/>
		</g>
	</g>
</g>
<g>
</g>
<g>
</g>
<g>
</g>
<g>
</g>
<g>
</g>
<g>
</g>
<g>
</g>
<g>
</g>
<g>
</g>
<g>
</g>
<g>
</g>
<g>
</g>
<g>
</g>
<g>
</g>
<g>
</g>
</svg>
