<?xml version="1.0" encoding="iso-8859-1"?>
<!-- Generator: Adobe Illustrator 19.0.0, SVG Export Plug-In . SVG Version: 6.00 Build 0)  -->
<svg version="1.1" id="Layer_1" xmlns="http://www.w3.org/2000/svg" xmlns:xlink="http://www.w3.org/1999/xlink" x="0px" y="0px"
	 viewBox="0 0 512.527 512.527" style="enable-background:new 0 0 512.527 512.527;" xml:space="preserve">
<g transform="translate(1)">
	<g>
		<path style="fill:#FFE100;" d="M383,367.09h81.92c20.48,0,37.547-17.067,37.547-37.547v-81.92h-2.56
			C435.053,247.623,383,299.677,383,364.53V367.09z"/>
		<path style="fill:#FFE100;" d="M502.467,512.157c-3.413,0-6.827-2.56-8.533-5.973L451.267,369.65
			c-1.707-4.267,0.853-9.387,5.973-11.093c4.267-1.707,9.387,0.853,11.093,5.973L511,501.063c1.707,4.267-0.853,9.387-5.973,11.093
			C504.173,512.157,503.32,512.157,502.467,512.157z"/>
		<path style="fill:#FFE100;" d="M417.133,512.157c-0.853,0-1.707,0-1.707,0c-4.267-0.853-7.68-5.973-5.973-10.24l34.133-136.533
			c0.853-4.267,5.973-7.68,10.24-5.973c4.267,0.853,7.68,5.973,5.973,10.24l-34.133,136.533
			C424.813,509.597,420.547,512.157,417.133,512.157z"/>
		<path style="fill:#FFE100;" d="M109.933,512.157c-3.413,0-6.827-2.56-8.533-5.973L58.733,369.65
			c-1.707-4.267,0.853-9.387,5.973-11.093c4.267-1.707,9.387,0.853,11.093,5.973l42.667,136.533
			c1.707,4.267-0.853,9.387-5.973,11.093C111.64,512.157,110.787,512.157,109.933,512.157z"/>
		<path style="fill:#FFE100;" d="M24.6,512.157c-0.853,0-1.707,0-1.707,0c-4.267-0.853-7.68-5.973-5.973-10.24l34.133-136.533
			c0.853-4.267,5.973-7.68,10.24-5.973c4.267,0.853,7.68,5.973,5.973,10.24L33.133,506.183
			C32.28,509.597,28.013,512.157,24.6,512.157z"/>
		<path style="fill:#FFE100;" d="M480.28,128.157H29.72c-5.12,0-6.827-7.68-2.56-9.387L255,8.69l227.84,110.08
			C487.107,120.477,485.4,128.157,480.28,128.157"/>
	</g>
	<path style="fill:#FFA800;" d="M482.84,118.77L255,8.69l-25.6,11.947l202.24,97.28c5.12,2.56,3.413,9.387-2.56,9.387h51.2
		C485.4,128.157,487.107,120.477,482.84,118.77"/>
	<path style="fill:#FFE100;" d="M127,367.09H45.08c-20.48,0-37.547-17.067-37.547-37.547v-81.92h2.56
		C74.947,247.623,127,299.677,127,364.53V367.09z"/>
	<path style="fill:#FFFFFF;" d="M33.133,329.543V249.33c-7.68-0.853-15.36-1.707-23.04-1.707h-2.56v81.92
		c0,20.48,17.067,37.547,37.547,37.547h25.6C50.2,367.09,33.133,350.023,33.133,329.543"/>
	<path style="fill:#FFA800;" d="M476.867,329.543V249.33c7.68-1.707,15.36-2.56,23.04-2.56h2.56v81.92
		c0,20.48-17.067,37.547-37.547,37.547h-25.6C459.8,367.09,476.867,350.023,476.867,329.543"/>
	<g>
		<path style="fill:#FFE100;" d="M161.133,503.623h187.733c-42.667,0-76.8-34.133-76.8-76.8v-76.8h25.6V315.89h-85.333v34.133h25.6
			v76.8C237.933,469.49,203.8,503.623,161.133,503.623"/>
		<path style="fill:#FFE100;" d="M417.133,281.757H92.867c10.24,9.387,17.92,21.333,23.893,34.133h277.333
			C400.067,303.09,407.747,291.143,417.133,281.757"/>
	</g>
	<path d="M480.28,136.69H29.72c-5.973,0-11.947-4.267-13.653-10.24c-0.853-6.827,1.707-12.8,7.68-15.36L251.587,1.01
		c2.56-0.853,5.12-0.853,7.68,0l226.987,110.08c5.973,2.56,8.533,9.387,7.68,15.36C492.227,132.423,487.107,136.69,480.28,136.69z
		 M45.08,119.623h420.693L255,18.077L45.08,119.623z"/>
	<path d="M255,290.29c-5.12,0-8.533-3.413-8.533-8.533v-153.6c0-5.12,3.413-8.533,8.533-8.533s8.533,3.413,8.533,8.533v153.6
		C263.533,286.877,260.12,290.29,255,290.29z"/>
	<path d="M365.933,512.157H144.067c-5.12,0-8.533-3.413-8.533-8.533c0-5.12,3.413-8.533,8.533-8.533h221.867
		c5.12,0,8.533,3.413,8.533,8.533C374.467,508.743,371.053,512.157,365.933,512.157z"/>
	<path d="M135.533,375.623H45.08c-25.6,0-46.08-20.48-46.08-46.08V239.09h11.093c69.12,0,125.44,56.32,125.44,125.44V375.623z
		 M16.067,256.157v73.387c0,16.213,12.8,29.013,29.013,29.013h73.387C115.053,303.943,70.68,259.57,16.067,256.157z"/>
	<path d="M464.92,375.623h-90.453V364.53c0-69.12,56.32-125.44,125.44-125.44H511v90.453C511,355.143,490.52,375.623,464.92,375.623
		z M391.533,358.557h73.387c16.213,0,29.013-12.8,29.013-29.013v-73.387C439.32,259.57,394.947,303.943,391.533,358.557z"/>
	<path d="M493.933,512.157c-3.413,0-6.827-2.56-8.533-5.973L442.733,369.65c-1.707-4.267,0.853-9.387,5.973-11.093
		c4.267-1.707,9.387,0.853,11.093,5.973l42.667,136.533c1.707,4.267-0.853,9.387-5.973,11.093
		C495.64,512.157,494.787,512.157,493.933,512.157z"/>
	<path d="M408.6,512.157c-0.853,0-1.707,0-1.707,0c-4.267-0.853-7.68-5.973-5.973-10.24l34.133-136.533
		c0.853-4.267,5.973-7.68,10.24-5.973c4.267,0.853,7.68,5.973,5.973,10.24l-34.133,136.533
		C416.28,509.597,412.013,512.157,408.6,512.157z"/>
	<path d="M101.4,512.157c-3.413,0-6.827-2.56-8.533-5.973L50.2,369.65c-1.707-4.267,0.853-9.387,5.973-11.093
		c4.267-1.707,9.387,0.853,11.093,5.973l42.667,136.533c1.707,4.267-0.853,9.387-5.973,11.093
		C103.107,512.157,102.253,512.157,101.4,512.157z"/>
	<path d="M16.067,512.157c-0.853,0-1.707,0-1.707,0c-4.267-0.853-7.68-5.973-5.973-10.24L42.52,365.383
		c0.853-4.267,5.973-7.68,10.24-5.973c4.267,0.853,7.68,5.973,5.973,10.24L24.6,506.183
		C23.747,509.597,19.48,512.157,16.067,512.157z"/>
	<path d="M348.867,512.157H161.133V495.09c37.547,0,68.267-30.72,68.267-68.267v-68.267h-25.6v-51.2h102.4v51.2h-25.6v68.267
		c0,37.547,30.72,68.267,68.267,68.267V512.157z M212.333,495.09h85.333c-20.48-15.36-34.133-40.107-34.133-68.267V341.49h25.6
		v-17.067h-68.267v17.067h25.6v85.333C246.467,454.983,232.813,479.73,212.333,495.09z"/>
	<path d="M399.213,324.423H110.787l-2.56-5.12c-5.12-11.947-12.8-22.187-22.187-31.573l-14.507-14.507h366.08l-14.507,14.507
		c-9.387,9.387-16.213,19.627-22.187,31.573L399.213,324.423z M121.88,307.357h267.093c3.413-5.973,6.827-11.947,10.24-17.067
		H110.787C115.053,295.41,118.467,301.383,121.88,307.357z"/>
</g>
<g>
</g>
<g>
</g>
<g>
</g>
<g>
</g>
<g>
</g>
<g>
</g>
<g>
</g>
<g>
</g>
<g>
</g>
<g>
</g>
<g>
</g>
<g>
</g>
<g>
</g>
<g>
</g>
<g>
</g>
</svg>
