<?xml version="1.0" encoding="iso-8859-1"?>
<!-- Generator: Adobe Illustrator 19.0.0, SVG Export Plug-In . SVG Version: 6.00 Build 0)  -->
<svg version="1.1" id="Capa_1" xmlns="http://www.w3.org/2000/svg" xmlns:xlink="http://www.w3.org/1999/xlink" x="0px" y="0px"
	 viewBox="0 0 512 512" style="enable-background:new 0 0 512 512;" xml:space="preserve">
<path style="fill:#E3E6E8;" d="M428.667,194.272h-60.999c-10.061,0-18.217-8.156-18.217-18.217c0-10.061,8.156-18.217,18.217-18.217
	h60.999c21.724,0,39.399-17.674,39.399-39.399S450.392,79.04,428.667,79.04h-60.999c-10.061,0-18.217-8.156-18.217-18.217
	s8.156-18.217,18.217-18.217h60.999c41.814,0,75.833,34.019,75.833,75.833S470.481,194.272,428.667,194.272z"/>
<g>
	<path style="fill:#CCCED0;" d="M437.732,159.311c0.264-0.9,0.498-1.808,0.751-2.711c-3.139,0.808-6.428,1.238-9.816,1.238h-60.999
		c-10.061,0-18.217,8.156-18.217,18.217s8.156,18.217,18.217,18.217h56.384C429.535,183.399,434.082,171.764,437.732,159.311z"/>
	<path style="fill:#CCCED0;" d="M367.668,42.606c-10.061,0-18.217,8.156-18.217,18.217s8.156,18.217,18.217,18.217h60.999
		c7.581,0,14.664,2.157,20.68,5.882c0.66-11.683,0.949-23.286,1.09-34.66c0.019-1.507-0.036-3.003-0.125-4.492
		c-6.863-2.048-14.125-3.165-21.645-3.165L367.668,42.606L367.668,42.606z"/>
</g>
<path style="fill:#E3E6E8;" d="M389.527,18.665H137.434c-17.195,0-31.126,14.032-30.912,31.225
	c0.892,71.947,8.035,136.62,65.192,182.165l91.767,21.767l91.767-21.767c57.158-45.545,64.3-110.218,65.192-182.165
	C420.652,32.697,406.722,18.665,389.527,18.665z"/>
<path style="fill:#CCCED0;" d="M211.713,232.056c-57.158-45.545-64.3-110.218-65.192-182.165
	c-0.213-17.193,13.717-31.225,30.912-31.225h-40c-17.195,0-31.126,14.032-30.912,31.225c0.892,71.947,8.035,136.62,65.192,182.165
	l91.767,21.767l20-4.744L211.713,232.056z"/>
<path style="fill:#E7627B;" d="M72.82,232.056c-36.018,0-65.32,29.302-65.32,65.319c0,36.018,29.302,65.32,65.32,65.32
	l57.414,30.621l25.864-30.621V232.056H72.82z"/>
<path style="fill:#FAE7CA;" d="M448.808,321.055c-13.058,0-23.68-10.623-23.68-23.68s10.623-23.679,23.68-23.679v-19.872H107.462
	v87.104h341.345v-19.873H448.808z"/>
<path style="fill:#EC8094;" d="M448.808,321.055H156.099c-13.058,0-23.68-10.623-23.68-23.68s10.623-23.679,23.68-23.679h292.709
	c11.499,0,20.82-9.321,20.82-20.82s-9.321-20.82-20.82-20.82H156.099c-36.018,0-65.32,29.302-65.32,65.319
	c0,36.018,29.302,65.32,65.32,65.32l60.537,21.767h153.029l34.642-21.767h44.5c11.499,0,20.82-9.321,20.82-20.82
	S460.306,321.055,448.808,321.055z"/>
<path style="fill:#42AA7E;" d="M321.029,362.694h83.279c36.018,0,65.32,29.302,65.32,65.319c0,36.018-29.302,65.32-65.32,65.32
	h-83.279V362.694z"/>
<path style="fill:#FAE7CA;" d="M28.32,451.693c13.058,0,23.68-10.623,23.68-23.68s-10.623-23.679-23.68-23.679v-19.872h341.345
	v87.104H28.32V451.693z"/>
<path style="fill:#51D09A;" d="M28.32,493.333h292.709c36.018,0,65.32-29.302,65.32-65.32c0-36.017-29.302-65.319-65.32-65.319
	H28.32c-11.499,0-20.82,9.321-20.82,20.82s9.321,20.82,20.82,20.82h292.709c13.058,0,23.68,10.622,23.68,23.679
	s-10.623,23.68-23.68,23.68H28.32c-11.499,0-20.82,9.321-20.82,20.82C7.5,484.011,16.821,493.333,28.32,493.333z"/>
<path d="M201.368,134.301c4.142,0,7.5-3.358,7.5-7.5V115.56c0-4.142-3.358-7.5-7.5-7.5s-7.5,3.358-7.5,7.5v11.241
	C193.868,130.943,197.226,134.301,201.368,134.301z"/>
<path d="M325.592,134.301c4.142,0,7.5-3.358,7.5-7.5V115.56c0-4.142-3.358-7.5-7.5-7.5s-7.5,3.358-7.5,7.5v11.241
	C318.092,130.943,321.45,134.301,325.592,134.301z"/>
<path d="M263.48,142.608c9.505,0,18.428-3.972,24.482-10.897c2.726-3.119,2.408-7.857-0.71-10.583
	c-3.118-2.726-7.857-2.409-10.583,0.71c-3.206,3.667-8.013,5.77-13.189,5.77c-5.177,0-9.984-2.103-13.188-5.77
	c-2.726-3.119-7.464-3.436-10.583-0.711c-3.119,2.726-3.437,7.464-0.711,10.583C245.051,138.637,253.975,142.608,263.48,142.608z"/>
<path d="M28.32,444.193c-15.616,0-28.32,12.704-28.32,28.32s12.704,28.32,28.32,28.32h375.988c40.153,0,72.82-32.667,72.82-72.82
	c0-23.542-11.24-44.499-28.624-57.818h0.304c15.616,0,28.32-12.704,28.32-28.32s-12.704-28.32-28.32-28.32
	c-8.922,0-16.18-7.258-16.18-16.18c0-8.921,7.258-16.179,16.18-16.179c15.616,0,28.32-12.704,28.32-28.32s-12.704-28.32-28.32-28.32
	h-73.995c7.158-7.238,13.349-14.854,18.703-22.783h35.151c45.95,0,83.333-37.383,83.333-83.333s-37.383-83.333-83.333-83.333h-3.518
	c-1.873-4.611-4.657-8.855-8.267-12.51c-7.28-7.371-16.995-11.43-27.356-11.43H137.434c-10.361,0-20.076,4.059-27.356,11.43
	c-7.258,7.349-11.184,17.075-11.056,27.388c0.773,62.337,5.8,126.72,53.126,174.572H72.82C32.667,224.556,0,257.222,0,297.374
	c0,23.542,11.24,44.5,28.625,57.82H28.32c-15.616,0-28.32,12.704-28.32,28.32c0,15.616,12.704,28.32,28.32,28.32
	c8.922,0,16.18,7.258,16.18,16.179C44.5,436.935,37.242,444.193,28.32,444.193z M462.127,428.013c0,31.882-25.938,57.82-57.82,57.82
	H365.25c1.617-1.24,3.17-2.559,4.689-3.917c0.014-0.012,0.028-0.024,0.041-0.037c14.975-13.905,23.869-33.36,23.869-53.866
	c0-21.576-9.996-42.621-26.683-56.292c-0.631-0.518-1.267-1.029-1.916-1.526h39.058
	C436.189,370.194,462.127,396.132,462.127,428.013z M462.127,252.875c0,7.344-5.975,13.32-13.32,13.32h-68.5
	c-4.142,0-7.5,3.358-7.5,7.5s3.358,7.5,7.5,7.5h41.854c-2.877,4.72-4.535,10.259-4.535,16.179s1.658,11.46,4.535,16.18H156.099
	c-8.922,0-16.18-7.258-16.18-16.18c0-8.921,7.258-16.179,16.18-16.179h194.209c4.142,0,7.5-3.358,7.5-7.5s-3.358-7.5-7.5-7.5
	h-194.21c-16.783,0-31.18,14.374-31.18,31.179c0,17.193,13.987,31.18,31.18,31.18h292.709c7.345,0,13.32,5.976,13.32,13.32
	s-5.975,13.32-13.32,13.32c0,0-292.689,0-292.709,0c-31.474,0-57.82-26.353-57.82-57.82c0-31.881,25.938-57.819,57.82-57.819
	h292.709C456.152,239.556,462.127,245.531,462.127,252.875z M426.718,86.541h1.949c17.589,0,31.899,14.31,31.899,31.898
	c0,17.589-14.31,31.899-31.899,31.899h-11.834C422.607,129.784,425.369,108.258,426.718,86.541z M497,118.439
	c0,37.679-30.654,68.333-68.333,68.333H402.6c3.575-6.769,6.716-13.875,9.478-21.435h16.59c25.86,0,46.899-21.039,46.899-46.899
	S454.528,71.54,428.668,71.54h-1.223c0.241-6.707,0.385-13.415,0.475-20.101c0.006-0.445,0.013-0.884,0.018-1.334h0.73
	C466.346,50.106,497,80.76,497,118.439z M114.021,49.798c-0.078-6.271,2.312-12.188,6.729-16.661
	c4.439-4.495,10.365-6.971,16.684-6.971c0,0,251.835,0,252.093,0c11.734,0,21.987,9.156,23.274,20.812
	c0.003,0.033,0.008,0.066,0.011,0.1c1.084,10.282-0.163,21.282-0.697,31.595c-0.001,0.028,0.001,0.057,0,0.084
	c-1.171,23.849-3.871,47.833-10.37,70.008c-9.172,31.301-25.264,56.121-49.154,75.791H174.369
	c-23.89-19.67-39.981-44.49-49.154-75.791C116.068,117.552,114.429,82.753,114.021,49.798z M15,297.374
	c0-31.881,25.938-57.819,57.82-57.819h39.058c-0.649,0.498-1.287,1.009-1.918,1.528c-0.134,0.11-0.266,0.223-0.4,0.334
	c-18.356,15.236-28.25,39.382-25.926,63.112c0.021,0.208,0.043,0.417,0.065,0.625c2.134,19.98,12.755,37.483,28.196,50.062
	c-13.027-0.036-26.055-0.022-39.082-0.022C40.935,355.191,15,329.253,15,297.374z M128.308,459.193h192.721
	c17.193,0,31.181-13.987,31.181-31.181c0-17.192-13.988-31.179-31.181-31.179H28.32c-7.345,0-13.32-5.975-13.32-13.32
	c0-7.344,5.975-13.319,13.32-13.319h292.709c31.882,0,57.82,25.938,57.82,57.818c0,24.908-15.831,46.187-37.96,54.306
	c-6.343,2.327-13.105,3.514-19.86,3.514H28.32c-7.345,0-13.32-5.975-13.32-13.32c0-7.344,5.975-13.319,13.32-13.319h69.988
	c4.142,0,7.5-3.358,7.5-7.5s-3.358-7.5-7.5-7.5H54.964c2.877-4.72,4.536-10.26,4.536-16.181c0-5.92-1.658-11.459-4.535-16.179
	h266.064c8.922,0,16.181,7.258,16.181,16.179c0,8.922-7.259,16.181-16.181,16.181H128.308c-4.142,0-7.5,3.358-7.5,7.5
	S124.166,459.193,128.308,459.193z"/>
<g>
</g>
<g>
</g>
<g>
</g>
<g>
</g>
<g>
</g>
<g>
</g>
<g>
</g>
<g>
</g>
<g>
</g>
<g>
</g>
<g>
</g>
<g>
</g>
<g>
</g>
<g>
</g>
<g>
</g>
</svg>
