<?xml version="1.0" encoding="iso-8859-1"?>
<!-- Generator: Adobe Illustrator 19.0.0, SVG Export Plug-In . SVG Version: 6.00 Build 0)  -->
<svg version="1.1" id="Capa_1" xmlns="http://www.w3.org/2000/svg" xmlns:xlink="http://www.w3.org/1999/xlink" x="0px" y="0px"
	 viewBox="0 0 512 512" style="enable-background:new 0 0 512 512;" xml:space="preserve">
<path style="fill:#34ABE0;" d="M512,256c0,8.15-0.387,16.217-1.139,24.169c-0.836,9.028-2.152,17.92-3.918,26.645
	c-1.808,9.07-4.117,17.962-6.886,26.645c-6.499,20.543-15.538,39.957-26.718,57.887c-19.289,30.908-44.983,57.407-75.233,77.615
	c-5.099,3.417-10.324,6.646-15.673,9.686c-8.098,4.608-16.468,8.788-25.078,12.507c-5.141,2.226-10.365,4.274-15.673,6.154
	C314.901,506.828,286.051,512,256,512s-58.901-5.172-85.682-14.691c-5.308-1.881-10.533-3.929-15.673-6.154
	c-48.076-20.741-88.524-55.808-115.984-99.809C14.158,352.078,0,305.685,0,256c0-5.872,0.199-11.703,0.596-17.481
	c0.606-9.017,1.682-17.91,3.208-26.645c5.726-33.008,17.774-63.843,34.858-91.22c6.938-11.118,14.712-21.661,23.228-31.556
	c2.257-2.623,4.556-5.193,6.917-7.711c14.733-15.799,31.451-29.727,49.758-41.399c6.457-4.117,13.103-7.952,19.937-11.483
	c30.208-15.642,63.937-25.433,99.683-27.888C244.067,0.209,250.013,0,256,0c50.584,0,97.729,14.67,137.435,39.988
	c21.232,13.531,40.323,30.104,56.675,49.11c6.562,7.628,12.695,15.642,18.328,24.012c1.682,2.487,3.312,4.995,4.901,7.544
	c24.095,38.609,38.191,84.114,38.64,132.869C512,254.349,512,255.175,512,256z"/>
<g>
	<path style="fill:#78CAEF;" d="M468.438,113.11c-0.397,1.264-0.616,2.612-0.616,4.012c0,7.367-5.966,13.333-13.322,13.333H262.625
		c-3.678,0-7.011-1.494-9.425-3.908c-2.403-2.403-3.897-5.747-3.897-9.425c0-7.356,5.966-13.322,13.322-13.322h40.5
		c3.678,0,7.011-1.494,9.425-3.897c2.403-2.414,3.897-5.747,3.897-9.425c0-7.356-5.966-13.322-13.322-13.322h-11.306
		c-3.678,0-7.011-1.494-9.425-3.897c-2.403-2.414-3.897-5.747-3.897-9.425c0-7.356,5.966-13.322,13.322-13.322h37.418
		c3.678,0,7.011-1.494,9.415-3.897c2.414-2.414,3.908-5.747,3.908-9.425c0-7.356-5.966-13.322-13.322-13.322h-82.16
		c-3.678,0-7.011-1.494-9.425-3.897c-2.403-2.414-3.897-5.747-3.897-9.425c0-3.939,1.714-7.481,4.43-9.927
		C244.067,0.209,250.013,0,256,0c50.584,0,97.729,14.67,137.435,39.988c21.232,13.531,40.323,30.104,56.675,49.11
		C456.673,96.726,462.806,104.741,468.438,113.11z"/>
	<path style="fill:#78CAEF;" d="M174.059,251.841c0,7.356-5.966,13.322-13.322,13.322h-3.699c-3.688,0-7.011,1.494-9.425,3.908
		c-2.414,2.403-3.908,5.736-3.908,9.415c0,7.356-5.956,13.322-13.322,13.322H22.779c-3.678,0-7.011-1.494-9.425-3.908
		c-2.403-2.403-3.897-5.736-3.897-9.415c0-7.356,5.966-13.322,13.322-13.322h3.709c3.678,0,7.011-1.494,9.415-3.908
		c2.414-2.403,3.908-5.736,3.908-9.415c0-7.356-5.966-13.322-13.322-13.322H0.596c0.606-9.017,1.682-17.91,3.208-26.645h98.638
		c7.356,0,13.322,5.966,13.322,13.322c0,7.356,5.966,13.322,13.322,13.322h31.65c3.678,0,7.011,1.494,9.415,3.908
		C172.565,244.83,174.059,248.163,174.059,251.841z"/>
	<path style="fill:#78CAEF;" d="M459.233,293.491c0,7.356,5.966,13.322,13.322,13.322h34.388c-1.808,9.07-4.117,17.962-6.886,26.645
		h-90.415c-3.678,0-7.011-1.494-9.425-3.908c-2.403-2.403-3.897-5.736-3.897-9.415c0-7.356-5.966-13.322-13.322-13.322h-63.655
		c-3.678,0-7.011-1.494-9.425-3.908c-2.403-2.403-3.897-5.736-3.897-9.415c0-7.356,5.966-13.322,13.322-13.322h42.935
		c3.678,0,7.011-1.494,9.415-3.908c2.414-2.403,3.908-5.736,3.908-9.415c0-7.356,5.966-13.322,13.322-13.322h123.058
		C512,254.349,512,255.175,512,256c0,8.15-0.387,16.217-1.139,24.168h-38.306C465.199,280.168,459.233,286.135,459.233,293.491z"/>
	<path style="fill:#78CAEF;" d="M190.882,68.472c0,7.356-5.966,13.322-13.322,13.322H72.088c-1.128,0-2.226-0.146-3.281-0.408
		c14.733-15.799,31.451-29.727,49.758-41.399c6.457-4.117,13.103-7.952,19.937-11.483h12.413c7.356,0,13.322,5.966,13.322,13.322
		c0,3.678,1.494,7.011,3.908,9.425c2.403,2.403,5.736,3.897,9.415,3.897s7.011,1.494,9.415,3.897
		C189.388,61.461,190.882,64.794,190.882,68.472z"/>
</g>
<path style="fill:#E8DBC4;" d="M473.339,89.098v302.247c-19.289,30.908-44.983,57.407-75.233,77.615
	c-5.099,3.417-10.324,6.646-15.673,9.686c-8.098,4.608-16.468,8.788-25.078,12.507c-5.141,2.226-10.365,4.274-15.673,6.154
	C314.901,506.828,286.051,512,256,512s-58.901-5.172-85.682-14.691c-5.308-1.881-10.533-3.929-15.673-6.154
	c-48.076-20.741-88.524-55.808-115.984-99.809V89.098H473.339z"/>
<path style="fill:#EDBB4C;" d="M489.986,112.086H22.014c-4.368,0-7.908-3.54-7.908-7.908v-7.171c0-4.368,3.54-7.908,7.908-7.908
	h467.971c4.368,0,7.908,3.54,7.908,7.908v7.171C497.894,108.546,494.354,112.086,489.986,112.086z"/>
<g>
	<rect x="38.661" y="112.086" style="fill:#D6C8B0;" width="434.678" height="17.763"/>
	<path style="fill:#D6C8B0;" d="M473.339,128.282v84.961c-0.878,1.097-1.818,2.142-2.811,3.135
		c-6.907,6.907-16.436,11.17-26.969,11.17c-21.065,0-38.139-17.074-38.139-38.139c0,10.533-4.263,20.062-11.17,26.969
		c-6.907,6.907-16.436,11.17-26.969,11.17c-21.065,0-38.139-17.074-38.139-38.139c0,10.533-4.263,20.062-11.17,26.969
		c-6.907,6.907-16.436,11.17-26.969,11.17c-21.065,0-38.139-17.074-38.139-38.139c0,10.533-4.263,20.062-11.17,26.969
		c-6.907,6.907-16.436,11.17-26.969,11.17c-21.065,0-38.139-17.074-38.139-38.139c0,10.533-4.263,20.062-11.17,26.969
		c-6.907,6.907-16.436,11.17-26.969,11.17c-21.065,0-38.139-17.074-38.139-38.139c0,10.533-4.263,20.062-11.17,26.969
		c-6.907,6.907-16.436,11.17-26.969,11.17c-8.871,0-17.032-3.03-23.51-8.108v-91.157H473.339z"/>
</g>
<path style="fill:#FFD15C;" d="M62.171,211.352L62.171,211.352c-21.063,0-38.139-17.076-38.139-38.139v-61.127h76.278v61.127
	C100.31,194.276,83.234,211.352,62.171,211.352z"/>
<path style="fill:#FFDC8D;" d="M83.069,175.825L83.069,175.825c-4.328,0-7.837-3.509-7.837-7.837v-27.167
	c0-4.328,3.509-7.837,7.837-7.837l0,0c4.328,0,7.837,3.509,7.837,7.837v27.167C90.906,172.316,87.397,175.825,83.069,175.825z"/>
<path style="fill:#FF525D;" d="M138.449,211.352L138.449,211.352c-21.063,0-38.139-17.076-38.139-38.139v-61.127h76.278v61.127
	C176.588,194.276,159.512,211.352,138.449,211.352z"/>
<path style="fill:#FF6E7C;" d="M159.347,175.825L159.347,175.825c-4.328,0-7.837-3.509-7.837-7.837v-27.167
	c0-4.328,3.509-7.837,7.837-7.837l0,0c4.328,0,7.837,3.509,7.837,7.837v27.167C167.184,172.316,163.675,175.825,159.347,175.825z"/>
<path style="fill:#FFD15C;" d="M214.727,211.352L214.727,211.352c-21.063,0-38.139-17.076-38.139-38.139v-61.127h76.278v61.127
	C252.865,194.276,235.79,211.352,214.727,211.352z"/>
<path style="fill:#FFDC8D;" d="M235.624,175.825L235.624,175.825c-4.328,0-7.837-3.509-7.837-7.837v-27.167
	c0-4.328,3.509-7.837,7.837-7.837l0,0c4.328,0,7.837,3.509,7.837,7.837v27.167C243.461,172.316,239.952,175.825,235.624,175.825z"/>
<path style="fill:#FF525D;" d="M291.004,211.352L291.004,211.352c-21.063,0-38.139-17.076-38.139-38.139v-61.127h76.278v61.127
	C329.143,194.276,312.067,211.352,291.004,211.352z"/>
<path style="fill:#FF6E7C;" d="M311.902,175.825L311.902,175.825c-4.328,0-7.837-3.509-7.837-7.837v-27.167
	c0-4.328,3.509-7.837,7.837-7.837l0,0c4.328,0,7.837,3.509,7.837,7.837v27.167C319.739,172.316,316.23,175.825,311.902,175.825z"/>
<path style="fill:#FFD15C;" d="M367.282,211.352L367.282,211.352c-21.063,0-38.139-17.076-38.139-38.139v-61.127h76.278v61.127
	C405.42,194.276,388.345,211.352,367.282,211.352z"/>
<path style="fill:#FFDC8D;" d="M388.18,175.825L388.18,175.825c-4.328,0-7.837-3.509-7.837-7.837v-27.167
	c0-4.328,3.509-7.837,7.837-7.837l0,0c4.328,0,7.837,3.509,7.837,7.837v27.167C396.016,172.316,392.508,175.825,388.18,175.825z"/>
<path style="fill:#FF525D;" d="M443.559,211.352L443.559,211.352c-21.063,0-38.139-17.076-38.139-38.139v-61.127h76.278v61.127
	C481.698,194.276,464.622,211.352,443.559,211.352z"/>
<path style="fill:#FF6E7C;" d="M464.457,175.825L464.457,175.825c-4.328,0-7.837-3.509-7.837-7.837v-27.167
	c0-4.328,3.509-7.837,7.837-7.837l0,0c4.328,0,7.837,3.509,7.837,7.837v27.167C472.294,172.316,468.785,175.825,464.457,175.825z"/>
<g>
	<path style="fill:#D6C8B0;" d="M357.355,243.743v247.411c-5.141,2.226-10.365,4.274-15.673,6.154
		C314.901,506.828,286.051,512,256,512s-58.901-5.172-85.682-14.691c-5.308-1.881-10.533-3.929-15.673-6.154V243.743H357.355z"/>
	<path style="fill:#D6C8B0;" d="M473.339,243.743v147.602c-19.289,30.908-44.983,57.407-75.233,77.615
		c-5.099,3.417-10.324,6.646-15.673,9.686V243.743H473.339z"/>
</g>
<path style="fill:#5C5E70;" d="M341.682,262.552v234.757C314.901,506.828,286.051,512,256,512s-58.901-5.172-85.682-14.691V262.552
	H341.682z"/>
<path style="fill:#C69A6A;" d="M165.094,0.001H48.065V52.48c0,20.224,16.394,36.618,36.618,36.618h43.792
	c20.224,0,36.618-16.394,36.618-36.618V0.001z"/>
<path style="fill:#B58657;" d="M77.772,52.48V0.001H48.065V52.48c0,20.224,16.394,36.618,36.618,36.618h29.706
	C94.166,89.098,77.772,72.704,77.772,52.48z"/>
<path style="fill:#C69A6A;" d="M165.094,72.903c-17.573,0-31.869-14.296-31.869-31.869s14.296-31.869,31.869-31.869
	s31.869,14.296,31.869,31.869S182.667,72.903,165.094,72.903z M165.094,20.658c-11.235,0-20.376,9.141-20.376,20.376
	s9.141,20.376,20.376,20.376s20.376-9.141,20.376-20.376S176.329,20.658,165.094,20.658z"/>
<path style="fill:#D3AA81;" d="M141.061,62.976L141.061,62.976c-5.194,0-9.404-4.21-9.404-9.404V23.27
	c0-5.194,4.21-9.404,9.404-9.404l0,0c5.194,0,9.404,4.21,9.404,9.404v30.302C150.465,58.766,146.255,62.976,141.061,62.976z"/>
<g>
	<path style="fill:#5C5E70;" d="M233.564,38.3c-4.842,0-7.59,2.675-7.59,8.312v20.167c0,5.637,2.747,8.311,7.734,8.311
		c6.578,0,7.155-4.698,7.372-7.733c0.145-2.241,2.168-2.964,4.626-2.964c3.254,0,4.771,0.94,4.771,4.626
		c0,8.746-7.155,14.312-17.275,14.312c-9.107,0-16.624-4.482-16.624-16.552V46.611c0-12.071,7.589-16.552,16.695-16.552
		c10.048,0,17.203,5.349,17.203,13.733c0,3.758-1.517,4.626-4.698,4.626c-2.674,0-4.626-0.795-4.699-2.963
		C240.936,43.215,240.431,38.3,233.564,38.3z"/>
	<path style="fill:#5C5E70;" d="M259.87,66.779V46.613c0-12.071,7.373-16.552,16.914-16.552c9.541,0,16.987,4.482,16.987,16.552
		v20.167c0,12.071-7.445,16.552-16.987,16.552C267.243,83.331,259.87,78.849,259.87,66.779z M284.373,46.612
		c0-5.71-2.891-8.312-7.59-8.312c-4.771,0-7.517,2.602-7.517,8.312v20.167c0,5.71,2.746,8.311,7.517,8.311
		c4.699,0,7.59-2.602,7.59-8.311V46.612z"/>
	<path style="fill:#5C5E70;" d="M305.405,33.024c0-1.952,2.025-2.964,4.121-2.964h25.225c2.025,0,2.892,2.096,2.892,4.048
		c0,2.241-1.013,4.192-2.892,4.192h-19.949v14.457h11.058c1.88,0,2.892,1.807,2.892,3.758c0,1.662-0.867,3.613-2.892,3.613h-11.058
		v19.805c0,1.952-2.384,2.963-4.698,2.963c-2.385,0-4.699-1.011-4.699-2.963L305.405,33.024L305.405,33.024z"/>
	<path style="fill:#5C5E70;" d="M345.734,33.024c0-1.952,2.025-2.964,4.121-2.964h25.225c2.025,0,2.892,2.096,2.892,4.048
		c0,2.241-1.013,4.192-2.892,4.192H355.13v14.457h11.058c1.88,0,2.892,1.807,2.892,3.758c0,1.662-0.867,3.613-2.892,3.613H355.13
		v19.805c0,1.952-2.384,2.963-4.698,2.963c-2.385,0-4.699-1.011-4.699-2.963L345.734,33.024L345.734,33.024z"/>
	<path style="fill:#5C5E70;" d="M395.46,52.757h10.987c1.879,0,2.964,1.807,2.964,3.758c0,1.662-0.94,3.613-2.964,3.613H395.46
		v14.528h20.455c1.88,0,2.964,1.952,2.964,4.192c0,1.952-0.939,4.047-2.964,4.047h-25.731c-2.096,0-4.121-1.011-4.121-2.963V33.024
		c0-1.952,2.025-2.964,4.121-2.964h25.731c2.025,0,2.964,2.096,2.964,4.048c0,2.241-1.085,4.192-2.964,4.192H395.46V52.757z"/>
	<path style="fill:#5C5E70;" d="M437.381,52.757h10.987c1.879,0,2.964,1.807,2.964,3.758c0,1.662-0.94,3.613-2.964,3.613h-10.987
		v14.528h20.455c1.88,0,2.964,1.952,2.964,4.192c0,1.952-0.939,4.047-2.964,4.047h-25.731c-2.096,0-4.121-1.011-4.121-2.963V33.024
		c0-1.952,2.025-2.964,4.121-2.964h25.731c2.025,0,2.964,2.096,2.964,4.048c0,2.241-1.085,4.192-2.964,4.192h-20.455V52.757z"/>
	<path style="fill:#5C5E70;" d="M473.339,262.552v128.794c-19.289,30.908-44.983,57.407-75.233,77.615V262.552H473.339z"/>
</g>
<path style="fill:#D6C8B0;" d="M38.661,243.743v147.602c19.289,30.908,44.983,57.407,75.233,77.615
	c5.099,3.417,10.324,6.646,15.673,9.686V243.743H38.661z"/>
<path style="fill:#5C5E70;" d="M38.661,262.552v128.794c19.289,30.908,44.983,57.407,75.233,77.615V262.552H38.661z"/>
<path style="fill:#C69A6A;" d="M300.078,427.161l-39.898-39.898l-39.898,39.898l-7.388-7.388l43.592-43.592
	c2.041-2.04,5.348-2.04,7.388,0l43.592,43.592L300.078,427.161z"/>
<path style="fill:#F9EED7;" d="M310.541,418.241H206.683c-4.502,0-8.153,3.65-8.153,8.153v44.298c0,4.502,3.65,8.153,8.153,8.153
	h103.858c4.502,0,8.153-3.65,8.153-8.153v-44.298C318.694,421.891,315.044,418.241,310.541,418.241z"/>
<g>
	<path style="fill:#C69A6A;" d="M214.896,453.841v-10.596c0-6.343,3.873-8.697,8.887-8.697c5.013,0,8.926,2.354,8.926,8.697v10.596
		c0,6.343-3.912,8.698-8.926,8.698C218.769,462.539,214.896,460.184,214.896,453.841z M227.77,443.245c0-3-1.519-4.368-3.987-4.368
		c-2.507,0-3.95,1.368-3.95,4.368v10.596c0,3.001,1.443,4.368,3.95,4.368c2.469,0,3.987-1.368,3.987-4.368V443.245z"/>
	<path style="fill:#C69A6A;" d="M238.824,436.067c0-0.798,0.722-1.519,1.861-1.519h7.634c4.823,0,8.62,2.317,8.62,8.545v0.228
		c0,6.229-3.912,8.621-8.926,8.621h-4.254v8.811c0,1.025-1.253,1.557-2.468,1.557c-1.254,0-2.469-0.532-2.469-1.557v-24.686H238.824
		z M243.761,438.878v9.191h4.254c2.469,0,3.987-1.405,3.987-4.368v-0.457c0-2.962-1.519-4.368-3.987-4.368h-4.254V438.878z"/>
	<path style="fill:#C69A6A;" d="M266.817,446.473h5.773c0.987,0,1.557,0.949,1.557,1.975c0,0.874-0.494,1.899-1.557,1.899h-5.773
		v7.634h10.748c0.987,0,1.557,1.025,1.557,2.203c0,1.025-0.494,2.126-1.557,2.126h-13.52c-1.101,0-2.165-0.532-2.165-1.557v-24.648
		c0-1.025,1.064-1.557,2.165-1.557h13.52c1.064,0,1.557,1.101,1.557,2.127c0,1.177-0.569,2.203-1.557,2.203h-10.748L266.817,446.473
		L266.817,446.473z"/>
	<path style="fill:#C69A6A;" d="M297.012,460.753l-8.165-15.267v15.267c0,1.025-1.253,1.557-2.468,1.557
		c-1.254,0-2.469-0.532-2.469-1.557v-24.648c0-1.064,1.215-1.557,2.469-1.557c1.785,0,2.507,0.38,3.683,2.621l7.33,14.167v-15.268
		c0-1.064,1.215-1.519,2.468-1.519c1.215,0,2.468,0.456,2.468,1.519v24.686c0,1.025-1.253,1.557-2.468,1.557
		C298.683,462.311,297.658,461.931,297.012,460.753z"/>
</g>
<g>
	<path style="fill:#797B89;" d="M319.102,388.984h-11.265c-5.545,0-10.04-4.495-10.04-10.04v-85.453
		c0-5.545,4.495-10.04,10.04-10.04h11.265c5.545,0,10.04,4.495,10.04,10.04v85.453C329.143,384.489,324.648,388.984,319.102,388.984
		z"/>
	<path style="fill:#797B89;" d="M454.415,388.984H443.15c-5.545,0-10.04-4.495-10.04-10.04v-85.453c0-5.545,4.495-10.04,10.04-10.04
		h11.265c5.545,0,10.04,4.495,10.04,10.04v85.453C464.455,384.489,459.96,388.984,454.415,388.984z"/>
	<path style="fill:#797B89;" d="M93.404,388.984H82.138c-5.545,0-10.04-4.495-10.04-10.04v-85.453c0-5.545,4.495-10.04,10.04-10.04
		h11.265c5.545,0,10.04,4.495,10.04,10.04v85.453C103.445,384.489,98.95,388.984,93.404,388.984z"/>
</g>
<g>
</g>
<g>
</g>
<g>
</g>
<g>
</g>
<g>
</g>
<g>
</g>
<g>
</g>
<g>
</g>
<g>
</g>
<g>
</g>
<g>
</g>
<g>
</g>
<g>
</g>
<g>
</g>
<g>
</g>
</svg>
