<?xml version="1.0" encoding="iso-8859-1"?>
<!-- Generator: Adobe Illustrator 19.0.0, SVG Export Plug-In . SVG Version: 6.00 Build 0)  -->
<svg version="1.1" id="Layer_1" xmlns="http://www.w3.org/2000/svg" xmlns:xlink="http://www.w3.org/1999/xlink" x="0px" y="0px"
	 viewBox="0 0 512 512" style="enable-background:new 0 0 512 512;" xml:space="preserve">
<polyline style="fill:#FFFFFF;" points="489.036,453.806 489.036,137.524 23.486,137.524 23.486,453.806 "/>
<rect x="256.261" y="137.525" style="fill:#E6E6E6;" width="232.775" height="316.281"/>
<polyline style="fill:#FFD442;" points="431.625,453.806 431.625,225.206 304.277,225.206 304.277,453.806 "/>
<rect x="23.486" y="380.739" style="fill:#FFE477;" width="280.791" height="73.068"/>
<rect x="256.261" y="380.739" style="fill:#FFD442;" width="48.016" height="73.068"/>
<rect x="23.486" y="250.259" style="fill:#FFE477;" width="280.791" height="73.068"/>
<rect x="256.261" y="250.259" style="fill:#FFD442;" width="48.016" height="73.068"/>
<polyline style="fill:#FFE477;" points="7.829,137.568 87.202,58.195 423.246,58.195 502.619,137.568 "/>
<polygon style="fill:#FFD442;" points="502.616,137.566 256.261,137.566 256.261,58.193 423.243,58.193 "/>
<g>
	<path style="fill:#FFE477;" d="M106.786,137.568v11.365c0,27.326-22.152,49.479-49.479,49.479l0,0
		c-27.326,0-49.479-22.152-49.479-49.479v-11.365"/>
	<path style="fill:#FFE477;" d="M304.703,137.568v11.365c0,27.326-22.152,49.479-49.479,49.479l0,0
		c-27.327,0-49.479-22.152-49.479-49.479v-11.365"/>
</g>
<g>
	<path style="fill:#FFD442;" d="M304.705,137.566v11.367c0,26.983-21.597,48.914-48.444,49.457v-60.824H304.705z"/>
	<path style="fill:#FFD442;" d="M403.661,137.568v11.365c0,27.326-22.152,49.479-49.479,49.479l0,0
		c-27.326,0-49.479-22.152-49.479-49.479v-11.365"/>
	<path style="fill:#FFD442;" d="M502.619,137.568v11.365c0,27.326-22.152,49.479-49.479,49.479l0,0
		c-27.327,0-49.479-22.152-49.479-49.479v-11.365"/>
</g>
<path style="fill:#FFE477;" d="M205.745,137.568v11.365c0,27.326-22.152,49.479-49.479,49.479l0,0
	c-27.326,0-49.479-22.152-49.479-49.479v-11.365"/>
<ellipse style="fill:#A5001E;" cx="164.404" cy="284.184" rx="35.72" ry="57.943"/>
<path style="fill:#830018;" d="M200.119,284.189c0-31.999-15.99-57.939-35.716-57.939v115.877
	C184.129,342.127,200.119,316.188,200.119,284.189z"/>
<path d="M496.864,445.977V185.921c8.463-9.989,13.583-22.899,13.583-36.986v-14.608l-83.96-83.959H83.96L0,134.325v14.608
	c0,31.599,25.709,57.306,57.307,57.306c21.08,0,39.526-11.449,49.479-28.447c9.953,16.998,28.4,28.447,49.479,28.447
	c21.08,0,39.526-11.449,49.479-28.447c9.953,16.998,28.399,28.447,49.479,28.447s39.526-11.449,49.479-28.447
	c9.953,16.998,28.4,28.447,49.479,28.447s39.526-11.449,49.479-28.447c9.953,16.998,28.4,28.447,49.479,28.447
	c10.193,0,19.765-2.687,28.068-7.373v247.108H312.106V233.033h111.69v197.806h15.658V217.376H296.449v25.052h-98.166
	c-7.922-14.736-20.05-24.008-33.879-24.008c-13.829,0-25.957,9.272-33.879,24.008h-99.21v-33.925H15.657v237.472H0.522v15.658H512
	v-15.658h-15.136V445.977z M483.718,129.74h-75.626l-38.229-63.716h50.139L483.718,129.74z M120.614,129.74l38.228-63.716h53.227
	l-12.742,63.716H120.614z M228.037,66.024h54.372l12.743,63.716h-79.858L228.037,66.024z M311.121,129.74l-12.743-63.716h53.226
	l38.229,63.716H311.121z M90.444,66.024h50.138l-38.228,63.716H26.728L90.444,66.024z M57.307,190.583
	c-22.966,0-41.65-18.684-41.65-41.649v-3.538h83.301v3.538C98.958,171.9,80.274,190.583,57.307,190.583z M156.266,190.583
	c-22.966,0-41.65-18.684-41.65-41.649v-3.538h83.301v3.538C197.916,171.9,179.232,190.583,156.266,190.583z M255.223,190.583
	c-22.965,0-41.649-18.684-41.649-41.649v-3.538h83.3v3.538C296.873,171.9,278.19,190.583,255.223,190.583z M354.182,190.583
	c-22.966,0-41.65-18.684-41.65-41.649v-3.538h83.301v3.538C395.832,171.9,377.147,190.583,354.182,190.583z M411.489,148.935v-3.538
	h83.301v3.538c0,22.965-18.684,41.649-41.65,41.649C430.173,190.583,411.489,171.9,411.489,148.935z M164.404,349.957
	c12.119,0,22.932-7.123,30.752-18.802h101.292v41.753H31.315v-41.753h102.336C141.472,342.834,152.285,349.957,164.404,349.957z
	 M296.449,258.087v57.411h-93.586c3.252-9.261,5.086-19.901,5.086-31.309c0-9.326-1.227-18.137-3.449-26.102H296.449
	L296.449,258.087z M192.291,284.189c0,22.3-8.611,41.749-20.058,48.001v-96.001C183.68,242.44,192.291,261.889,192.291,284.189z
	 M156.575,236.189v96.001c-11.448-6.252-20.058-25.7-20.058-48.001C136.517,261.889,145.127,242.44,156.575,236.189z
	 M124.308,258.087c-2.222,7.965-3.449,16.776-3.449,26.102c0,11.408,1.834,22.048,5.086,31.309h-94.63v-57.411H124.308z
	 M31.315,388.566h265.134v57.411H31.315V388.566z"/>
<g>
</g>
<g>
</g>
<g>
</g>
<g>
</g>
<g>
</g>
<g>
</g>
<g>
</g>
<g>
</g>
<g>
</g>
<g>
</g>
<g>
</g>
<g>
</g>
<g>
</g>
<g>
</g>
<g>
</g>
</svg>
