<?xml version="1.0" encoding="iso-8859-1"?>
<!-- Generator: Adobe Illustrator 19.0.0, SVG Export Plug-In . SVG Version: 6.00 Build 0)  -->
<svg version="1.1" id="Layer_1" xmlns="http://www.w3.org/2000/svg" xmlns:xlink="http://www.w3.org/1999/xlink" x="0px" y="0px"
	 viewBox="0 0 421.601 421.601" style="enable-background:new 0 0 421.601 421.601;" xml:space="preserve">
<g>
	<rect x="32.663" y="94.785" style="fill:#76DD91;" width="356.73" height="300.78"/>
	<g>
		<path style="fill:#62C479;" d="M42.163,149.015c0,7.37-3.77,13.85-9.5,17.61v-17.61H42.163z"/>
		<path style="fill:#62C479;" d="M84.318,149.012c0,11.65-9.436,21.086-21.086,21.086c-11.637,0-21.073-9.436-21.073-21.086H84.318z
			"/>
		<path style="fill:#62C479;" d="M126.477,149.012c0,11.65-9.436,21.086-21.073,21.086c-11.65,0-21.086-9.436-21.086-21.086H126.477
			z"/>
		<path style="fill:#62C479;" d="M168.636,149.012c0,11.65-9.436,21.086-21.073,21.086c-11.65,0-21.086-9.436-21.086-21.086H168.636
			z"/>
		<path style="fill:#62C479;" d="M210.795,149.012c0,11.65-9.436,21.086-21.073,21.086c-11.65,0-21.086-9.436-21.086-21.086H210.795
			z"/>
		<path style="fill:#62C479;" d="M252.966,149.012c0,11.65-9.448,21.086-21.086,21.086c-11.637,0-21.086-9.436-21.086-21.086
			H252.966z"/>
		<path style="fill:#62C479;" d="M295.125,149.012c0,11.65-9.436,21.086-21.086,21.086c-11.637,0-21.073-9.436-21.073-21.086
			H295.125z"/>
		<path style="fill:#62C479;" d="M337.284,149.012c0,11.65-9.436,21.086-21.086,21.086c-11.637,0-21.073-9.436-21.073-21.086
			H337.284z"/>
		<path style="fill:#62C479;" d="M379.443,149.012c0,11.65-9.436,21.086-21.086,21.086c-11.637,0-21.073-9.436-21.073-21.086
			H379.443z"/>
		<path style="fill:#62C479;" d="M389.393,149.015v17.9c-5.98-3.72-9.95-10.34-9.95-17.9H389.393z"/>
	</g>
	<rect x="32.663" y="94.785" style="fill:#62C479;" width="356.73" height="54.227"/>
	<rect x="49.032" y="177.123" style="fill:#4EAF60;" width="116.211" height="218.443"/>
	<rect x="54.032" y="182.123" style="fill:#62C479;" width="106.211" height="208.443"/>
	<rect x="62.032" y="186.124" style="fill:#76DD91;" width="90.211" height="126"/>
	<rect x="68.032" y="192.124" style="fill:#2D4151;" width="78.211" height="114"/>
	<rect x="62.032" y="318.123" style="fill:#76DD91;" width="90.211" height="64.443"/>
	<rect x="67.032" y="323.623" style="fill:#62C479;" width="80.211" height="53.443"/>
	<g>
		<g>
			<rect x="76.032" y="360.267" style="fill:#76DD91;" width="62.211" height="8.022"/>
		</g>
		<g>
			<rect x="76.032" y="333.4" style="fill:#76DD91;" width="62.211" height="8.022"/>
		</g>
		<g>
			<rect x="76.032" y="346.834" style="fill:#76DD91;" width="62.211" height="8.022"/>
		</g>
	</g>
	<g>
		<circle style="fill:#D8D4D5;" cx="106.857" cy="253.533" r="2.469"/>
		<g>
			<polygon style="fill:#C1B9BC;" points="118.807,262.889 106.897,253.871 95.535,262.668 95.199,262.234 106.894,253.18 
				119.139,262.451 			"/>
		</g>
		<path style="fill:#C12525;" d="M124.019,270.43c0,2.201-1.8,4-4,4H94.256c-2.2,0-4-1.799-4-4v-5.293c0-2.199,1.8-4,4-4h25.763
			c2.2,0,4,1.801,4,4V270.43z"/>
		<g>
			<path style="fill:#FAFCFC;" d="M99.083,263.527c0.601,0,1.112,0.213,1.533,0.636s0.631,0.933,0.631,1.529v4.935
				c0,0.602-0.212,1.112-0.635,1.533c-0.423,0.421-0.933,0.631-1.529,0.631c-0.601,0-1.111-0.211-1.529-0.635
				c-0.418-0.423-0.628-0.933-0.628-1.529v-4.935c0-0.601,0.212-1.112,0.635-1.533C97.983,263.738,98.491,263.527,99.083,263.527z
				 M99.826,265.664c0-0.217-0.076-0.4-0.227-0.553c-0.152-0.151-0.335-0.227-0.552-0.227c-0.216,0-0.401,0.075-0.555,0.227
				s-0.231,0.336-0.231,0.553v4.949c0,0.216,0.077,0.4,0.231,0.551c0.154,0.152,0.339,0.228,0.555,0.228
				c0.217,0,0.4-0.075,0.552-0.228c0.151-0.15,0.227-0.335,0.227-0.551V265.664z"/>
			<path style="fill:#FAFCFC;" d="M104.601,263.643c0.664,0,1.193,0.209,1.587,0.628c0.365,0.398,0.548,0.908,0.548,1.529v1.313
				c0,0.597-0.208,1.106-0.624,1.529c-0.416,0.424-0.92,0.635-1.512,0.635h-0.786v3.406h-1.364v-9.04L104.601,263.643
				L104.601,263.643z M105.417,265.822c0-0.236-0.071-0.426-0.213-0.57s-0.331-0.217-0.566-0.217h-0.822v2.894h0.822
				c0.217,0,0.4-0.077,0.552-0.231c0.151-0.153,0.227-0.338,0.227-0.555V265.822z"/>
			<path style="fill:#FAFCFC;" d="M107.826,272.684v-9.047h3.881v1.37h-2.518v2.468h1.84v1.371h-1.84v2.467h2.518v1.371H107.826z"/>
			<path style="fill:#FAFCFC;" d="M114.176,263.637l1.81,6.08v-6.08h1.364v9.047h-1.465l-1.875-5.793v5.793h-1.364v-9.047H114.176z"
				/>
		</g>
	</g>
	<rect x="174.006" y="177.123" style="fill:#4EAF60;" width="196.703" height="175.912"/>
	<rect x="179.006" y="182.123" style="fill:#62C479;" width="186.703" height="165.912"/>
	<rect x="183.003" y="186.125" style="fill:#2D4151;" width="178.71" height="157.58"/>
	<g>
		<path style="fill:#DBA52C;" d="M42.159,141.987c0,11.65-9.436,21.086-21.086,21.086C9.436,163.073,0,153.637,0,141.987"/>
		<path style="fill:#D1D1D1;" d="M84.318,141.987c0,11.65-9.436,21.086-21.086,21.086c-11.637,0-21.073-9.436-21.073-21.086"/>
		<path style="fill:#DBA52C;" d="M126.477,141.987c0,11.65-9.436,21.086-21.073,21.086c-11.65,0-21.086-9.436-21.086-21.086"/>
		<path style="fill:#D1D1D1;" d="M168.636,141.987c0,11.65-9.436,21.086-21.073,21.086c-11.65,0-21.086-9.436-21.086-21.086"/>
		<path style="fill:#DBA52C;" d="M210.795,141.987c0,11.65-9.436,21.086-21.073,21.086c-11.65,0-21.086-9.436-21.086-21.086"/>
		<path style="fill:#D1D1D1;" d="M252.966,141.987c0,11.65-9.448,21.086-21.086,21.086c-11.637,0-21.086-9.436-21.086-21.086"/>
		<path style="fill:#DBA52C;" d="M295.125,141.987c0,11.65-9.436,21.086-21.086,21.086c-11.637,0-21.073-9.436-21.073-21.086"/>
		<path style="fill:#D1D1D1;" d="M337.284,141.987c0,11.65-9.436,21.086-21.086,21.086c-11.637,0-21.073-9.436-21.073-21.086"/>
		<path style="fill:#DBA52C;" d="M379.443,141.987c0,11.65-9.436,21.086-21.086,21.086c-11.637,0-21.073-9.436-21.073-21.086"/>
		<path style="fill:#D1D1D1;" d="M421.601,141.987c0,11.65-9.436,21.086-21.073,21.086c-11.65,0-21.086-9.436-21.086-21.086"/>
	</g>
	<g>
		<polygon style="fill:#F9C032;" points="68.292,77.29 32.666,77.29 0,141.987 42.159,141.987 		"/>
		<polygon style="fill:#E6E6E6;" points="103.918,77.29 68.292,77.29 42.159,141.987 84.318,141.987 		"/>
		<polygon style="fill:#F9C032;" points="139.544,77.29 103.918,77.29 84.318,141.987 126.477,141.987 		"/>
		<polygon style="fill:#E6E6E6;" points="175.17,77.29 139.544,77.29 126.477,141.987 168.636,141.987 		"/>
		<polygon style="fill:#F9C032;" points="210.796,77.29 175.17,77.29 168.636,141.987 210.795,141.987 		"/>
		<polygon style="fill:#E6E6E6;" points="246.421,77.29 210.796,77.29 210.795,141.987 252.954,141.987 		"/>
		<polygon style="fill:#F9C032;" points="282.047,77.29 246.421,77.29 252.954,141.987 295.113,141.987 		"/>
		<polygon style="fill:#E6E6E6;" points="317.673,77.29 282.047,77.29 295.113,141.987 337.272,141.987 		"/>
		<polygon style="fill:#E6E6E6;" points="388.935,77.29 353.309,77.29 379.443,141.987 421.601,141.987 		"/>
		<polygon style="fill:#F9C032;" points="353.309,77.29 317.683,77.29 337.284,141.987 379.443,141.987 		"/>
	</g>
	<g>
		<rect x="268.858" y="299.535" style="fill:#D8722E;" width="7" height="44.17"/>
		<polygon style="fill:#E6E6E6;" points="265.64,294.535 272.362,282.892 279.084,294.535 		"/>
		<g>
			<path style="fill:#E6E6E6;" d="M255.112,288.66c0,3.797-3.078,6.875-6.875,6.875s-6.875-3.078-6.875-6.875"/>
			<path style="fill:#E6E6E6;" d="M303.362,288.66c0,3.797-3.078,6.875-6.875,6.875s-6.875-3.078-6.875-6.875"/>
		</g>
		<rect x="268.858" y="301.035" style="fill:#C6622A;" width="7" height="7"/>
		<path style="fill:#D8722E;" d="M306.862,301.535h-69c-1.933,0-3.5-1.567-3.5-3.5l0,0c0-1.933,1.567-3.5,3.5-3.5h69
			c1.933,0,3.5,1.567,3.5,3.5l0,0C310.362,299.968,308.795,301.535,306.862,301.535z"/>
		<g>
			<g>
				<rect x="214.645" y="327.035" style="fill:#D8722E;" width="7" height="16.667"/>
				<rect x="235.321" y="327.035" style="fill:#D8722E;" width="7" height="16.667"/>
				<rect x="235.321" y="326.535" style="fill:#C6622A;" width="7" height="7"/>
				<rect x="214.645" y="326.535" style="fill:#C6622A;" width="7" height="7"/>
				<path style="fill:#D8722E;" d="M242.123,321.535h-22.978v-33.469c0-1.895-1.419-3.594-3.312-3.693
					c-2.018-0.106-3.688,1.5-3.688,3.495v33.667v4.612c0,1.319,1.069,2.388,2.388,2.388h4.612h23.176
					c1.995,0,3.601-1.67,3.495-3.688C245.717,322.954,244.018,321.535,242.123,321.535z"/>
			</g>
			<g>
				<rect x="323.071" y="327.035" style="fill:#D8722E;" width="7" height="16.667"/>
				<rect x="302.395" y="327.035" style="fill:#D8722E;" width="7" height="16.667"/>
				<rect x="302.395" y="326.535" style="fill:#C6622A;" width="7" height="7"/>
				<rect x="323.071" y="326.535" style="fill:#C6622A;" width="7" height="7"/>
				<path style="fill:#D8722E;" d="M328.883,284.373c-1.893,0.099-3.312,1.798-3.312,3.693v33.469h-22.978
					c-1.895,0-3.594,1.419-3.693,3.312c-0.106,2.018,1.5,3.688,3.495,3.688h23.176h4.612c1.319,0,2.388-1.069,2.388-2.388v-4.612
					v-33.667C332.571,285.873,330.901,284.268,328.883,284.373z"/>
			</g>
		</g>
	</g>
	<path style="fill:#F9C032;" d="M192.373,284.865c13.69,6.19,23.69,25.58,23.69,48.55c0,3.53-0.24,6.97-0.69,10.29h-32.37v-157.58
		h64.6c0.79,4.83,1.25,9.81,1.34,14.91c0.01,0.63,0.02,1.27,0.02,1.91C248.963,244.665,224.363,279.155,192.373,284.865z"/>
	<path style="fill:#F9C032;" d="M361.713,186.125v157.58h-32.37c-0.45-3.32-0.69-6.76-0.69-10.29c0-22.97,10-42.36,23.69-48.55
		c-31.99-5.71-56.59-40.2-56.59-81.92c0-0.64,0.01-1.28,0.02-1.91c0.09-5.1,0.55-10.08,1.34-14.91L361.713,186.125L361.713,186.125z
		"/>
	<rect x="183.003" y="283.38" style="fill:#D8722E;" width="15.557" height="5.374"/>
	<rect x="346.156" y="283.38" style="fill:#D8722E;" width="15.557" height="5.374"/>
	<path style="fill:#DBA52C;" d="M247.603,186.125c0.79,4.83,1.25,9.81,1.34,14.91h-65.94v-14.91H247.603z"/>
	<rect x="269.858" y="186.125" style="fill:#D8722E;" width="5" height="50.91"/>
	<path style="fill:#DBA52C;" d="M362.033,186.125v14.91h-66.26c0.09-5.1,0.55-10.08,1.34-14.91H362.033z"/>
	<path style="fill:#F9C032;" d="M295.796,250.754c0-12.944-10.493-23.438-23.438-23.438s-23.438,10.493-23.438,23.438"/>
	<path style="opacity:0.2;fill:#FCFAFA;enable-background:new    ;" d="M190.412,337.018h167.591v-95.871
		C358.001,241.147,331.089,325.274,190.412,337.018z"/>
	<rect x="73.864" y="26.035" style="fill:#76DD91;" width="285.339" height="75"/>
	<rect x="81.18" y="33.352" style="fill:#F9C032;" width="270.706" height="60.367"/>
	<rect x="88.493" y="40.665" style="fill:#62C479;" width="256.08" height="45.74"/>
	<rect x="95.653" y="47.825" style="fill:#76DD91;" width="248.92" height="38.58"/>
	<rect x="174.006" y="358.035" style="fill:#4EAF60;" width="196.703" height="32.531"/>
	<rect x="179.006" y="363.035" style="fill:#76DD91;" width="186.703" height="22.531"/>
	<g>
		<path style="fill:#2D4151;" d="M194.467,61.363c0-0.087,0.043-0.217,0.043-0.217c0.304-1.13,0.565-2.129,0.565-3.258
			c0-1.477-0.435-2.693-1.738-2.693c-2.954,0-6.69,6.386-6.69,12.294c0,4.127,1.911,5.604,3.866,5.604s4.648-1.955,5.734-2.867
			c0,0,0.26-0.261,0.521-0.261c0.304,0,0.478,0.087,0.652,0.304c0.391,0.478,1.303,2.52,1.477,2.954
			c0.13,0.304,0.217,0.521,0.217,0.825c0,0.261-0.087,0.478-0.261,0.695c-1.303,1.738-4.692,4.388-7.82,4.388
			c-2.78,0-7.385-2.302-9.079-4.865c-1.129-1.738-1.781-3.953-1.781-6.386c0-7.95,4.909-17.985,11.729-17.985
			c1.998,0,9.601,2.563,9.601,6.386c0,1.651-0.782,3.606-1.26,4.735c-0.174,0.434-0.608,0.739-1.129,0.739
			c-0.652,0.087-3.389,0.13-4.04,0.13C194.728,61.884,194.467,61.667,194.467,61.363z"/>
		<path style="fill:#2D4151;" d="M212.537,77.002l-0.13-1.824c0-0.217-0.087-0.348-0.174-0.348s-0.174,0.087-0.261,0.217
			c-1.521,2.433-3.258,3.997-4.605,3.997c-3.084,0-6.516-3.78-6.516-7.863c0-7.255,3.475-14.423,9.471-14.423
			c2.128,0,6.473,1.694,9.601,3.736c0.304,0.174,0.521,0.521,0.521,0.912c0,0.13-0.087,0.478-0.087,0.478
			c-1.738,6.169-2.346,12.902-2.433,16.377c-0.044,0.391-0.348,0.695-0.739,0.695c-1.129,0-3.519-0.652-3.866-0.825
			C212.755,77.827,212.581,77.436,212.537,77.002z M212.146,69.791c0.478-2.259,1.304-6.343,1.304-6.69
			c0-0.304-0.131-0.565-0.479-0.695c-0.608-0.217-1.173-0.348-1.521-0.348c-2.823,0-4.388,5.952-4.388,8.949
			c0,1.26,0.304,2.128,0.695,2.128c0.912,0,2.563-1.173,3.823-2.346C211.93,70.486,212.103,70.095,212.146,69.791z"/>
		<path style="fill:#2D4151;" d="M234.69,53.804c-1.26,0-2.563,1.217-2.563,2.563c0,0.347,0.217,0.521,0.651,0.521
			c0.782,0,1.651,0,2.172,0.043c0.565,0.043,0.739,0.521,0.739,0.999c-0.044,0.999-0.174,2.737-0.348,3.78
			c-0.087,0.434-0.521,0.782-0.999,0.782c-0.608,0-1.738-0.043-2.78-0.043c-0.435,0-0.826,0.304-0.913,0.695
			c-0.912,4.735-1.998,10.817-2.736,15.118c-0.087,0.391-0.478,0.739-0.912,0.739c-0.869,0-3.736-0.782-4.432-1.129
			c-0.304-0.174-0.608-0.391-0.608-0.956c0-0.782,2.26-13.641,2.26-13.858c0-0.478-0.087-0.739-0.435-0.739h-0.608
			c-0.521,0-0.825-0.304-0.825-0.739s0-2.52,0.087-3.475c0-0.478,0.348-0.956,0.999-0.956h0.956c0.521,0,0.868-0.391,0.955-0.869
			c0.869-4.388,2.693-8.341,8.124-8.341c1.303,0,2.91,0.347,4.17,0.956c0.348,0.217,0.521,0.478,0.521,0.825
			c0,0.435-0.955,3.693-1.042,3.953c-0.087,0.304-0.392,0.435-0.695,0.435C236.168,54.108,235.343,53.804,234.69,53.804z"/>
		<path style="fill:#2D4151;" d="M244.29,73.396c1.521,0,3.171-0.608,4.388-1.303c0,0,0.173-0.087,0.347-0.087
			c0.305,0,0.479,0.13,0.652,0.435c0.304,0.565,1.129,2.259,1.129,2.867c0,0.478-0.174,0.825-0.435,1.086
			c-1.563,1.39-3.605,2.65-6.038,2.65c-1.434,0-5.43-1.173-7.081-3.258c-1.173-1.477-1.781-3.345-1.781-5.734
			c0-5.387,3.736-13.337,8.993-13.337c1.52,0,5.733,1.694,7.341,3.302c0.869,0.869,1.087,2.172,1.087,3.215
			c0,3.388-3.041,7.038-8.342,7.038c-0.825,0-1.998-0.174-2.346-0.174c-0.217,0-0.478,0.174-0.478,0.521
			C241.726,71.876,242.683,73.396,244.29,73.396z M242.509,66.055c0,0.347,0.261,0.521,0.564,0.521c2.477,0,3.953-2.172,3.953-3.606
			c0-0.825-0.261-1.564-1.043-1.564C244.637,61.406,242.509,64.882,242.509,66.055z"/>
	</g>
	<g>
		<rect x="131.866" y="60.868" style="fill:#2D4151;" width="32" height="5.333"/>
		<rect x="269.2" y="60.868" style="fill:#2D4151;" width="32" height="5.333"/>
	</g>
	<g>
		<rect x="144.7" y="69.079" style="fill:#2D4151;" width="27.15" height="5.333"/>
		<rect x="261.217" y="69.079" style="fill:#2D4151;" width="27.15" height="5.333"/>
	</g>
	<path style="opacity:0.2;fill:#FCFAFA;enable-background:new    ;" d="M144.009,212.937v91H91.952
		C91.952,303.937,137.632,289.323,144.009,212.937z"/>
</g>
<g>
</g>
<g>
</g>
<g>
</g>
<g>
</g>
<g>
</g>
<g>
</g>
<g>
</g>
<g>
</g>
<g>
</g>
<g>
</g>
<g>
</g>
<g>
</g>
<g>
</g>
<g>
</g>
<g>
</g>
</svg>
