<?xml version="1.0" encoding="iso-8859-1"?>
<!-- Generator: Adobe Illustrator 19.0.0, SVG Export Plug-In . SVG Version: 6.00 Build 0)  -->
<svg version="1.1" id="Layer_1" xmlns="http://www.w3.org/2000/svg" xmlns:xlink="http://www.w3.org/1999/xlink" x="0px" y="0px"
	 viewBox="0 0 512 512" style="enable-background:new 0 0 512 512;" xml:space="preserve">
<g>
	<path style="fill:#CEE8FA;" d="M163.687,255.924L163.687,255.924c-25.491,0-46.157-20.664-46.157-46.157V120.97h92.313v88.798
		C209.844,235.259,189.18,255.924,163.687,255.924z"/>
	<path style="fill:#CEE8FA;" d="M348.315,255.924L348.315,255.924c-25.491,0-46.157-20.664-46.157-46.157V120.97h92.313v88.798
		C394.472,235.259,373.806,255.924,348.315,255.924z"/>
	<rect x="48.3" y="313.071" style="fill:#CEE8FA;" width="134.531" height="100.8"/>
	<rect x="329.181" y="313.071" style="fill:#CEE8FA;" width="134.531" height="100.8"/>
</g>
<path style="fill:#2D527C;" d="M451.399,106.431h-56.927h-73.949c8.385-10.637,13.879-23.652,15.259-37.861h13.266
	c8.029,0,14.539-6.509,14.539-14.539s-6.511-14.539-14.539-14.539h-12.915V14.539c0-8.03-6.511-14.539-14.539-14.539H190.408
	c-8.029,0-14.539,6.509-14.539,14.539v46.944c0,16.957,5.846,32.563,15.609,44.948h-73.949H60.603
	c-27.53,0-49.926,22.396-49.926,49.926v53.411c0,19.267,9.035,36.453,23.078,47.579v55.723v100.804v83.587
	c0,8.03,6.511,14.539,14.539,14.539h415.414c8.029,0,14.539-6.509,14.539-14.539v-83.587V326.69v-13.62
	c0-8.03-6.511-14.539-14.539-14.539H329.181c-8.029,0-14.539,6.509-14.539,14.539v100.804c0,8.03,6.511,14.539,14.539,14.539
	h119.987v54.509H62.833v-54.509H182.82c8.029,0,14.539-6.509,14.539-14.539V313.07c0-8.03-6.511-14.539-14.539-14.539H62.833v-28.68
	c2.792,0.395,5.641,0.612,8.54,0.612c8.029,0,14.539-6.509,14.539-14.539c0-8.03-6.511-14.539-14.539-14.539
	c-17.434,0-31.618-14.183-31.618-31.618v-53.411c0-11.495,9.353-20.848,20.848-20.848h42.387v74.259
	c0,33.468,27.229,60.697,60.697,60.697c18.463,0,35.015-8.297,46.156-21.346c11.141,13.049,27.694,21.346,46.157,21.346
	s35.016-8.297,46.157-21.346c11.141,13.049,27.693,21.346,46.156,21.346c18.463,0,35.016-8.297,46.157-21.346
	c11.141,13.049,27.693,21.346,46.156,21.346c8.029,0,14.539-6.509,14.539-14.539c0-8.03-6.511-14.539-14.539-14.539
	c-17.434,0-31.617-14.183-31.617-31.618v-74.257h42.387c11.495,0,20.848,9.353,20.848,20.848v53.411
	c0,8.03,6.511,14.539,14.539,14.539c8.029,0,14.539-6.509,14.539-14.539v-53.411C501.325,128.827,478.929,106.431,451.399,106.431z
	 M343.72,399.335v-71.726h105.448v71.726H343.72z M168.283,327.609v71.726H62.833v-71.726L168.283,327.609L168.283,327.609z
	 M204.947,29.078h102.107v32.405c0,24.081-19.593,43.674-43.674,43.674h-14.757c-24.081,0-43.674-19.593-43.674-43.674V29.078
	H204.947z M163.687,241.385c-17.434,0-31.618-14.183-31.618-31.618v-74.257h63.235v74.259
	C195.305,227.202,181.122,241.385,163.687,241.385z M256.001,241.385c-17.434,0-31.618-14.183-31.618-31.618v-74.257h63.237v74.259
	C287.62,227.202,273.435,241.385,256.001,241.385z M348.315,241.385c-17.434,0-31.617-14.183-31.617-31.618v-74.257h63.235v74.259
	C379.933,227.202,365.749,241.385,348.315,241.385z"/>
<g>
</g>
<g>
</g>
<g>
</g>
<g>
</g>
<g>
</g>
<g>
</g>
<g>
</g>
<g>
</g>
<g>
</g>
<g>
</g>
<g>
</g>
<g>
</g>
<g>
</g>
<g>
</g>
<g>
</g>
</svg>
