<?xml version="1.0" encoding="iso-8859-1"?>
<!-- Generator: Adobe Illustrator 19.0.0, SVG Export Plug-In . SVG Version: 6.00 Build 0)  -->
<svg version="1.1" id="Layer_1" xmlns="http://www.w3.org/2000/svg" xmlns:xlink="http://www.w3.org/1999/xlink" x="0px" y="0px"
	 viewBox="0 0 512 512" style="enable-background:new 0 0 512 512;" xml:space="preserve">
<g transform="translate(1 1)">
	<path style="fill:#FFE100;" d="M475.69,153.483v344.276h6.179c6.179,0,11.476-5.297,11.476-11.476v-332.8H475.69z"/>
	<g>
		<path style="fill:#63D3FD;" d="M149.069,118.172c0,19.421,15.89,35.31,35.31,35.31s35.31-15.89,35.31-35.31V21.069h-70.621
			V118.172z"/>
		<path style="fill:#63D3FD;" d="M290.31,118.172c0,19.421,15.89,35.31,35.31,35.31c19.421,0,35.31-15.89,35.31-35.31V21.069H290.31
			V118.172z"/>
	</g>
	<g>
		<path style="fill:#00DA6C;" d="M78.448,118.172c0,19.421,15.89,35.31,35.31,35.31s35.31-15.89,35.31-35.31V21.069H78.448V118.172z
			"/>
		<path style="fill:#00DA6C;" d="M219.69,118.172c0,19.421,15.89,35.31,35.31,35.31s35.31-15.89,35.31-35.31V21.069H219.69V118.172z
			"/>
		<path style="fill:#00DA6C;" d="M360.931,118.172c0,19.421,15.89,35.31,35.31,35.31c19.421,0,35.31-15.89,35.31-35.31V21.069
			h-70.621V118.172z"/>
	</g>
	<path style="fill:#63D3FD;" d="M34.31,118.172c0,20.303-3.531,37.076,17.655,35.31c18.538-1.766,26.483-18.538,26.483-37.076
		V21.069H59.91c-14.124,0-25.6,11.476-25.6,25.6V118.172z"/>
	<path style="fill:#FFFFFF;" d="M34.31,118.172V46.669c0-14.124,11.476-25.6,25.6-25.6H33.428c-14.124,0-25.6,11.476-25.6,25.6
		v71.503c0,20.303,17.655,36.193,37.959,35.31C31.662,151.717,34.31,136.71,34.31,118.172"/>
	<path style="fill:#63D3FD;" d="M475.69,118.172c0,20.303,3.531,37.076-17.655,35.31c-18.538-1.766-26.483-18.538-26.483-37.076
		V21.069h18.538c14.124,0,25.6,11.476,25.6,25.6V118.172z"/>
	<path style="fill:#3DB9F9;" d="M475.69,118.172V46.669c0-14.124-11.476-25.6-25.6-25.6h26.483c14.124,0,25.6,11.476,25.6,25.6
		v71.503c0,20.303-17.655,36.193-37.959,35.31C478.338,151.717,475.69,136.71,475.69,118.172"/>
	<g>
		<path style="fill:#FFE100;" d="M431.552,118.172c0,19.421-15.89,35.31-35.31,35.31c-19.421,0-35.31-15.89-35.31-35.31
			c0,19.421-15.89,35.31-35.31,35.31c-19.421,0-35.31-15.89-35.31-35.31c0,19.421-15.89,35.31-35.31,35.31s-35.31-15.89-35.31-35.31
			c0,19.421-15.89,35.31-35.31,35.31s-35.31-15.89-35.31-35.31c0,19.421-15.89,35.31-35.31,35.31s-35.31-15.89-35.31-35.31
			c0,19.421-15.89,35.31-35.31,35.31c-2.648,0-6.179-0.883-8.828-0.883v53.848H475.69V152.6c-2.648,0.883-6.179,0.883-8.828,0.883
			C447.441,153.483,431.552,137.593,431.552,118.172"/>
		<polygon style="fill:#FFE100;" points="51.966,488.931 458.034,488.931 458.034,206.448 51.966,206.448 		"/>
	</g>
	<polygon style="fill:#FFFFFF;" points="34.31,488.931 51.966,488.931 51.966,153.483 34.31,153.483 	"/>
	<g>
		<polygon style="fill:#FFA800;" points="458.034,488.931 475.69,488.931 475.69,153.483 458.034,153.483 		"/>
		<polygon style="fill:#FFA800;" points="78.448,488.931 202.034,488.931 202.034,241.759 78.448,241.759 		"/>
	</g>
	<polygon style="fill:#3DB9F9;" points="149.069,330.034 166.724,330.034 166.724,277.069 149.069,277.069 	"/>
	<g>
		<polygon style="fill:#63D3FD;" points="113.759,330.034 149.069,330.034 149.069,277.069 113.759,277.069 		"/>
		<polygon style="fill:#63D3FD;" points="246.172,435.966 440.379,435.966 440.379,241.759 246.172,241.759 		"/>
	</g>
	<g>
		<path style="fill:#FFA800;" d="M290.31,435.966c0-44.138-19.421-79.448-44.138-79.448c29.131,0,52.966-51.2,52.966-114.759
			h-52.966v194.207H290.31z"/>
		<path style="fill:#FFA800;" d="M396.241,435.966c0-44.138,19.421-79.448,44.138-79.448c-29.131,0-52.966-51.2-52.966-114.759
			h52.966v194.207H396.241z"/>
	</g>
	<path d="M43.138,162.31c-10.593,0-21.186-4.414-30.014-11.476C4.297,142.89-1,130.531-1,118.172V46.669
		c0-19.421,15.007-34.428,34.428-34.428h53.848v104.166c0,22.952-17.655,43.255-39.724,45.903
		C45.786,162.31,44.903,162.31,43.138,162.31z M33.428,29.897c-9.71,0-16.772,7.062-16.772,16.772v71.503
		c0,7.062,3.531,15.007,8.828,19.421c5.297,5.297,13.241,7.062,20.303,7.062c13.241-1.766,23.834-14.124,23.834-28.248v-86.51
		H33.428z"/>
	<path d="M113.759,162.31c-24.717,0-44.138-19.421-44.138-44.138V12.241h88.276v105.931
		C157.897,142.89,138.476,162.31,113.759,162.31z M87.276,29.897v88.276c0,15.007,11.476,26.483,26.483,26.483
		s26.483-11.476,26.483-26.483V29.897H87.276z"/>
	<path d="M184.379,162.31c-24.717,0-44.138-19.421-44.138-44.138V12.241h88.276v105.931
		C228.517,142.89,209.097,162.31,184.379,162.31z M157.897,29.897v88.276c0,15.007,11.476,26.483,26.483,26.483
		c15.007,0,26.483-11.476,26.483-26.483V29.897H157.897z"/>
	<path d="M255,162.31c-24.717,0-44.138-19.421-44.138-44.138V12.241h88.276v105.931C299.138,142.89,279.717,162.31,255,162.31z
		 M228.517,29.897v88.276c0,15.007,11.476,26.483,26.483,26.483s26.483-11.476,26.483-26.483V29.897H228.517z"/>
	<path d="M325.621,162.31c-24.717,0-44.138-19.421-44.138-44.138V12.241h88.276v105.931
		C369.759,142.89,350.338,162.31,325.621,162.31z M299.138,29.897v88.276c0,15.007,11.476,26.483,26.483,26.483
		s26.483-11.476,26.483-26.483V29.897H299.138z"/>
	<path d="M396.241,162.31c-24.717,0-44.138-19.421-44.138-44.138V12.241h88.276v105.931
		C440.379,142.89,420.959,162.31,396.241,162.31z M369.759,29.897v88.276c0,15.007,11.476,26.483,26.483,26.483
		c15.007,0,26.483-11.476,26.483-26.483V29.897H369.759z"/>
	<path d="M466.862,162.31c-10.593,0-21.186-4.414-30.014-11.476c-8.828-7.945-15.007-20.303-15.007-32.662V12.241h53.848
		c20.303,0,35.31,15.007,35.31,34.428v69.738c0,22.952-17.655,43.255-39.724,45.903C469.51,162.31,468.628,162.31,466.862,162.31z
		 M440.379,29.897v88.276c0,7.062,3.531,15.007,8.828,19.421c5.297,5.297,13.241,7.062,20.303,7.062
		c13.241-1.766,23.834-13.241,23.834-28.248V46.669c0-8.828-7.062-16.772-16.772-16.772
		C476.572,29.897,440.379,29.897,440.379,29.897z"/>
	<path d="M475.69,215.276H34.31c-5.297,0-8.828-3.531-8.828-8.828V152.6c0-2.648,0.883-5.297,3.531-7.062
		c1.766-1.766,5.297-2.648,7.945-1.766c1.766,0.883,4.414,0.883,6.179,0.883c15.007,0,26.483-11.476,26.483-26.483
		c0-5.297,3.531-8.828,8.828-8.828c5.297,0,8.828,3.531,8.828,8.828c0,15.007,11.476,26.483,26.483,26.483
		s26.483-11.476,26.483-26.483c0-5.297,3.531-8.828,8.828-8.828s8.828,3.531,8.828,8.828c0,15.007,11.476,26.483,26.483,26.483
		c15.007,0,26.483-11.476,26.483-26.483c0-5.297,3.531-8.828,8.828-8.828s8.828,3.531,8.828,8.828
		c0,15.007,11.476,26.483,26.483,26.483s26.483-11.476,26.483-26.483c0-5.297,3.531-8.828,8.828-8.828s8.828,3.531,8.828,8.828
		c0,15.007,11.476,26.483,26.483,26.483s26.483-11.476,26.483-26.483c0-5.297,3.531-8.828,8.828-8.828s8.828,3.531,8.828,8.828
		c0,15.007,11.476,26.483,26.483,26.483c15.007,0,26.483-11.476,26.483-26.483c0-5.297,3.531-8.828,8.828-8.828
		s8.828,3.531,8.828,8.828c0,15.007,11.476,26.483,26.483,26.483c1.766,0,4.414,0,6.179-0.883c2.648-0.883,5.297,0,7.945,1.766
		c2.648,1.766,3.531,4.414,3.531,7.062v53.848C484.517,211.745,480.986,215.276,475.69,215.276z M43.138,197.621h423.724v-35.31
		c-14.124,0-27.366-7.062-35.31-17.655c-7.945,10.593-21.186,17.655-35.31,17.655c-14.124,0-27.365-7.062-35.31-17.655
		c-7.945,10.593-21.186,17.655-35.31,17.655c-14.124,0-27.366-7.062-35.31-17.655c-7.945,10.593-21.186,17.655-35.31,17.655
		s-27.366-7.062-35.31-17.655c-7.945,10.593-21.186,17.655-35.31,17.655c-14.124,0-27.366-7.062-35.31-17.655
		c-7.945,10.593-21.186,17.655-35.31,17.655s-27.366-7.062-35.31-17.655c-7.945,10.593-21.186,17.655-35.31,17.655V197.621z"/>
	<path d="M202.034,497.759H78.448c-5.297,0-8.828-3.531-8.828-8.828V241.759c0-5.297,3.531-8.828,8.828-8.828h123.586
		c5.297,0,8.828,3.531,8.828,8.828v247.172C210.862,494.228,207.331,497.759,202.034,497.759z M87.276,480.103h105.931V250.586
		H87.276V480.103z"/>
	<path d="M475.69,497.759H34.31c-5.297,0-8.828-3.531-8.828-8.828V206.448c0-5.297,3.531-8.828,8.828-8.828H475.69
		c5.297,0,8.828,3.531,8.828,8.828v52.966c0,5.297-3.531,8.828-8.828,8.828s-8.828-3.531-8.828-8.828v-44.138H43.138v264.828
		h423.724V330.034c0-5.297,3.531-8.828,8.828-8.828s8.828,3.531,8.828,8.828v158.897
		C484.517,494.228,480.986,497.759,475.69,497.759z"/>
	<path d="M484.517,294.724c0-5.297-3.531-8.828-8.828-8.828s-8.828,3.531-8.828,8.828c0,5.297,3.531,8.828,8.828,8.828
		S484.517,300.021,484.517,294.724"/>
	<path d="M202.034,391.828h-26.483c-5.297,0-8.828-3.531-8.828-8.828s3.531-8.828,8.828-8.828h26.483
		c5.297,0,8.828,3.531,8.828,8.828S207.331,391.828,202.034,391.828z"/>
	<path d="M440.379,444.793H246.172c-5.297,0-8.828-3.531-8.828-8.828V241.759c0-5.297,3.531-8.828,8.828-8.828h194.207
		c5.297,0,8.828,3.531,8.828,8.828v194.207C449.207,441.262,445.676,444.793,440.379,444.793z M255,427.138h176.552V250.586H255
		V427.138z"/>
	<path d="M290.31,444.793h-44.138c-5.297,0-8.828-3.531-8.828-8.828V241.759c0-5.297,3.531-8.828,8.828-8.828h52.966
		c5.297,0,8.828,3.531,8.828,8.828c0,52.966-15.89,96.221-37.959,114.759c17.655,14.124,29.131,44.138,29.131,79.448
		C299.138,441.262,295.607,444.793,290.31,444.793z M255,427.138h26.483c-1.766-30.014-13.241-52.083-26.483-59.145V427.138z
		 M255,250.586v94.455c16.772-9.71,33.545-45.021,35.31-94.455H255z"/>
	<path d="M440.379,444.793h-44.138c-5.297,0-8.828-3.531-8.828-8.828c0-35.31,11.476-65.324,29.131-79.448
		c-22.952-18.538-37.959-61.793-37.959-114.759c0-5.297,3.531-8.828,8.828-8.828h52.966c5.297,0,8.828,3.531,8.828,8.828v194.207
		C449.207,441.262,445.676,444.793,440.379,444.793z M405.069,427.138h26.483v-59.145
		C419.193,375.055,407.717,397.124,405.069,427.138z M396.241,250.586c1.766,49.434,17.655,84.745,35.31,94.455v-94.455H396.241z"/>
	<path d="M343.276,444.793c-5.297,0-8.828-3.531-8.828-8.828v-44.138c0-5.297,3.531-8.828,8.828-8.828s8.828,3.531,8.828,8.828
		v44.138C352.103,441.262,348.572,444.793,343.276,444.793z"/>
	<path d="M369.759,400.655h-52.966c-5.297,0-8.828-3.531-8.828-8.828s3.531-8.828,8.828-8.828h52.966
		c5.297,0,8.828,3.531,8.828,8.828S375.055,400.655,369.759,400.655z"/>
	<path d="M166.724,338.862h-52.966c-5.297,0-8.828-3.531-8.828-8.828v-52.966c0-5.297,3.531-8.828,8.828-8.828h52.966
		c5.297,0,8.828,3.531,8.828,8.828v52.966C175.552,335.331,172.021,338.862,166.724,338.862z M122.586,321.207h35.31v-35.31h-35.31
		V321.207z"/>
</g>
<g>
</g>
<g>
</g>
<g>
</g>
<g>
</g>
<g>
</g>
<g>
</g>
<g>
</g>
<g>
</g>
<g>
</g>
<g>
</g>
<g>
</g>
<g>
</g>
<g>
</g>
<g>
</g>
<g>
</g>
</svg>
