<?xml version="1.0" encoding="iso-8859-1"?>
<!-- Generator: Adobe Illustrator 19.0.0, SVG Export Plug-In . SVG Version: 6.00 Build 0)  -->
<svg version="1.1" id="Layer_1" xmlns="http://www.w3.org/2000/svg" xmlns:xlink="http://www.w3.org/1999/xlink" x="0px" y="0px"
	 viewBox="0 0 512 512" style="enable-background:new 0 0 512 512;" xml:space="preserve">
<g>
	<path style="fill:#98E1E2;" d="M217.023,382.006l-3.911,46.363c-0.763,8.955-8.737,16.275-17.724,16.275H52.442
		c-8.987,0-16.961-7.321-17.724-16.275l-3.911-46.363H217.023z"/>
	<path style="fill:#98E1E2;" d="M481.193,382.006l-3.911,46.363c-0.763,8.955-8.737,16.275-17.724,16.275H316.612
		c-8.987,0-16.961-7.321-17.724-16.275l-3.911-46.363H481.193z"/>
</g>
<rect x="8.17" y="349.325" style="fill:#C8FEFF;" width="495.66" height="32.681"/>
<g>
	<polygon style="fill:#BD9F79;" points="228.973,142.771 225.062,189.069 22.768,189.069 18.857,142.771 	"/>
	<polygon style="fill:#BD9F79;" points="493.143,142.771 489.232,189.069 286.938,189.069 283.027,142.771 	"/>
</g>
<g>
	<polygon style="fill:#E8D6BD;" points="471.781,67.355 482.457,110.09 293.714,110.09 304.389,67.355 	"/>
	<polygon style="fill:#E8D6BD;" points="207.611,67.355 218.286,110.09 29.543,110.09 40.219,67.355 	"/>
</g>
<g>
	<rect x="272.34" y="110.09" style="fill:#F9EBDB;" width="231.489" height="32.681"/>
	<rect x="8.17" y="110.09" style="fill:#F9EBDB;" width="231.489" height="32.681"/>
	<path style="fill:#F9EBDB;" d="M489.232,189.069l-13.541,160.256H300.479l-13.541-160.256H489.232z M428.108,309.215
		c15.229-15.229,9.663-45.492-12.451-67.595c-22.092-22.103-52.366-27.67-67.595-12.441c-15.229,15.229-9.663,45.492,12.441,67.595
		C382.617,318.877,412.879,324.444,428.108,309.215z"/>
	<path style="fill:#F9EBDB;" d="M225.062,189.069l-13.541,160.256H36.308L22.768,189.069H225.062z M163.938,309.215
		c15.229-15.229,9.663-45.492-12.451-67.595c-22.092-22.103-52.366-27.67-67.595-12.441c-15.229,15.229-9.663,45.492,12.441,67.595
		C118.446,318.877,148.709,324.444,163.938,309.215z"/>
</g>
<g>
	<path style="fill:#B75548;" d="M83.892,229.179l80.046,80.035c-15.229,15.229-45.492,9.663-67.606-12.441
		C74.229,274.671,68.662,244.409,83.892,229.179z"/>
	<path style="fill:#B75548;" d="M348.062,229.179l80.046,80.035c-15.229,15.229-45.492,9.663-67.606-12.441
		C338.399,274.671,332.833,244.409,348.062,229.179z"/>
</g>
<g>
	<path style="fill:#8E4238;" d="M151.487,241.62c22.114,22.103,27.681,52.366,12.451,67.595l-80.046-80.035
		C99.121,213.95,129.394,219.517,151.487,241.62z"/>
	<path style="fill:#8E4238;" d="M415.657,241.62c22.114,22.103,27.681,52.366,12.451,67.595l-80.046-80.035
		C363.291,213.95,393.565,219.517,415.657,241.62z"/>
</g>
<g>
	<path style="fill:#700D00;" d="M169.745,314.961c9.299-9.322,12.852-22.972,10.005-38.444
		c-2.648-14.381-10.632-28.826-22.481-40.675c-14.666-14.666-33.62-23.422-50.704-23.422c-11.418,0-21.247,3.79-28.427,10.959
		c-9.353,9.377-12.906,23.027-10.058,38.498c2.647,14.381,10.631,28.825,22.48,40.675c14.667,14.666,33.622,23.422,50.705,23.422
		c11.418,0,21.248-3.79,28.427-10.959C169.699,315.009,169.706,315.003,169.745,314.961z M145.715,247.398
		c9.531,9.531,15.91,20.923,17.965,32.078c1.178,6.397,0.804,12.167-1.016,16.916l-65.939-65.939
		c3.463-1.319,6.994-1.692,9.84-1.692C119.41,228.761,134.046,235.728,145.715,247.398z M141.265,309.634
		c-12.845,0-27.481-6.968-39.149-18.637c-9.531-9.531-15.91-20.923-17.965-32.078c-1.178-6.397-0.804-12.167,1.016-16.916
		l65.939,65.939C147.641,309.262,144.112,309.634,141.265,309.634z"/>
	<path style="fill:#700D00;" d="M433.916,314.961c9.299-9.322,12.852-22.972,10.005-38.444
		c-2.648-14.381-10.632-28.826-22.481-40.675c-14.666-14.666-33.62-23.422-50.704-23.422c-11.418,0-21.246,3.79-28.427,10.959
		c-9.353,9.377-12.906,23.027-10.058,38.498c2.647,14.381,10.631,28.825,22.48,40.675c14.667,14.666,33.622,23.422,50.705,23.422
		c11.418,0,21.248-3.79,28.427-10.959C433.869,315.009,433.876,315.003,433.916,314.961z M409.885,247.398
		c9.531,9.531,15.91,20.923,17.965,32.078c1.178,6.397,0.804,12.167-1.016,16.916l-65.939-65.939
		c3.463-1.319,6.994-1.692,9.84-1.692C383.581,228.761,398.216,235.728,409.885,247.398z M405.435,309.634
		c-12.845,0-27.481-6.968-39.149-18.637c-9.531-9.531-15.91-20.923-17.965-32.078c-1.178-6.397-0.804-12.167,1.016-16.916
		l65.939,65.939C411.811,309.262,408.282,309.634,405.435,309.634z"/>
	<path style="fill:#700D00;" d="M503.83,150.939c4.513,0,8.17-3.658,8.17-8.17v-32.681c0-4.512-3.657-8.17-8.17-8.17h-14.99
		l-9.136-36.547c-0.91-3.637-4.178-6.189-7.926-6.189H304.393c-3.749,0-7.017,2.551-7.926,6.189l-9.136,36.547h-14.99
		c-4.513,0-8.17,3.658-8.17,8.17v32.681c0,4.512,3.657,8.17,8.17,8.17h3.174l16.076,190.219h-71.181l16.076-190.219h3.174
		c4.513,0,8.17-3.658,8.17-8.17v-32.681c0-4.512-3.657-8.17-8.17-8.17h-14.99l-9.136-36.547c-0.91-3.637-4.178-6.189-7.926-6.189
		H40.222c-3.748,0-7.017,2.551-7.926,6.189l-9.136,36.547H8.17c-4.513,0-8.17,3.658-8.17,8.17v32.681c0,4.512,3.657,8.17,8.17,8.17
		h3.174L27.42,341.158H8.17c-4.513,0-8.17,3.658-8.17,8.17v32.681c0,4.512,3.657,8.17,8.17,8.17h15.125l3.286,38.874
		c1.108,13.104,12.706,23.764,25.857,23.764h142.954c13.151,0,24.75-10.66,25.857-23.763l3.286-38.875h62.931l3.285,38.874
		c1.108,13.104,12.706,23.764,25.857,23.764h142.954c13.151,0,24.75-10.66,25.857-23.763l3.286-38.875h15.126
		c4.513,0,8.17-3.658,8.17-8.17v-32.681c0-4.512-3.657-8.17-8.17-8.17h-19.25l16.076-190.219H503.83z M280.511,118.258h13.027
		c0.117,0.002,0.236,0.002,0.355,0h155.889c4.513,0,8.17-3.658,8.17-8.17c0-4.512-3.657-8.17-8.17-8.17H304.173l6.599-26.395
		h154.627l9.136,36.547c0.91,3.637,4.178,6.189,7.926,6.189h13.198v16.34H283.173c-0.003,0-2.662,0-2.662,0V118.258z M16.34,118.258
		h13.027c0.117,0.002,0.236,0.002,0.355,0h155.889c4.513,0,8.17-3.658,8.17-8.17c0-4.512-3.657-8.17-8.17-8.17H40.002l6.599-26.395
		h154.627l9.136,36.547c0.91,3.637,4.178,6.189,7.926,6.189h13.198v16.34H19.002c-0.003,0-2.661,0-2.661,0
		S16.34,118.258,16.34,118.258z M220.085,150.939l-2.532,29.957H30.276l-2.532-29.957H220.085z M31.657,197.237h184.516
		L204.01,341.158H43.82L31.657,197.237z M469.136,427.677c-0.395,4.688-4.871,8.8-9.574,8.8H316.609c-4.704,0-9.179-4.111-9.574-8.8
		l-3.169-37.498h168.441L469.136,427.677z M495.66,373.839h-14.595c-0.021,0-185.918,0-185.918,0c-0.023,0-0.046,0-0.068,0h-78.186
		c-0.021,0-120.726,0-120.726,0c-4.513,0-8.17,3.658-8.17,8.17c0,4.512,3.657,8.17,8.17,8.17h111.969l-3.169,37.498
		c-0.395,4.688-4.871,8.8-9.574,8.8H52.439c-4.704,0-9.179-4.111-9.574-8.8l-3.169-37.498h23.791c4.513,0,8.17-3.658,8.17-8.17
		c0-4.512-3.657-8.17-8.17-8.17H30.975c-0.023,0-0.046,0-0.068,0H16.34v-16.34H36.29c0.024,0,175.226,0,175.226,0
		c0.024,0,88.944,0,88.944,0c0.024,0,175.226,0,175.226,0c0.024,0,19.973,0,19.973,0L495.66,373.839L495.66,373.839z
		 M307.99,341.158l-12.163-143.921h184.516L468.18,341.158H307.99z M481.724,180.897H294.446l-2.532-29.957h192.341L481.724,180.897
		z"/>
</g>
<g>
</g>
<g>
</g>
<g>
</g>
<g>
</g>
<g>
</g>
<g>
</g>
<g>
</g>
<g>
</g>
<g>
</g>
<g>
</g>
<g>
</g>
<g>
</g>
<g>
</g>
<g>
</g>
<g>
</g>
</svg>
