<svg height="512" viewBox="0 0 56 49" width="512" xmlns="http://www.w3.org/2000/svg"><g id="Page-1" fill="none" fill-rule="evenodd"><g id="008---Coffee-and-Croissant" fill="rgb(0,0,0)" fill-rule="nonzero"><path id="Shape" d="m52.188 17.026c.0747636-.0402587.1657055-.0356346.236.012.171.095.992.726 1.747 4.037-.841.035-1.931.109-3.2.273.013-.373.016-.737.017-1.076.005-2.072.106-2.829 1.2-3.246z"/><path id="Shape" d="m48.8 24.164c.1019189-.2975694.3594957-.5147796.67-.565.185-.038.368-.065.571-.1 1.7461601-.2950592 3.513135-.4498869 5.284-.463h.066c.2442174-.0166374.4599992.1577318.495.4.2304313 1.9904468.1406276 4.0049523-.266 5.967-.37752 1.4268423-.9627788 2.7904246-1.737 4.047-1.5143404-2.7984192-3.5952424-5.250546-6.11-7.2.4325107-.6471831.7778187-1.3485584 1.027-2.086z"/><path id="Shape" d="m39.146 28.425 5.013-1.915c5.353 2.105 8.6 8.972 9.2 10.26-.553.956-2.333 3.369-6.909 5.115-1.5682361.6173456-3.2210283.9932867-4.902 1.115h-1.319c-.6979997-.0321057-1.3886722-.1565209-2.054-.37-.057-.245-.134-.581-.211-.985-.476-2.477-1.307-8.702 1.182-13.22z"/><path id="Shape" d="m35.732 40.4c-1.3459917-.4450366-2.6125199-1.1015924-3.752-1.945-1.4908343-1.2477453-2.7597514-2.738799-3.753-4.41-.1188041-.2554172-.0439255-.5590914.18-.73.013-.012.026-.024.037-.036 1.3787513-1.1878761 2.8467388-2.2680555 4.391-3.231.159-.1.318-.207.511-.319.2329366-.1515624.5316094-.1581479.771-.017.6260338.3968764 1.3041874.7048221 2.015.915-.7806113 3.1988362-.9165873 6.5210707-.4 9.773z"/><path id="Shape" d="m27.076 26.728c.0313739-.1057772.1129613-.1892359.218-.223 1.06-.4 1.545.078 2.78 1.661.212.271.439.561.683.852-1.09.731-1.987 1.409-2.665 1.955-1.04-2.318-1.226-3.703-1.016-4.245z"/><path id="Shape" d="m0 28.47c0-3.943.588-8.47 5.17-8.47.96081055-.0048014 1.91620706.1440784 2.83.441v2.149c-.8889702-.4008443-1.85491297-.6022246-2.83-.59-2.928 0-3.17 3.061-3.17 6.47 0 3.463 1.185 5.53 3.17 5.53.96441082-.0099033 1.92058186-.1788381 2.83-.5v.5c.00424615.5226935.04635638 1.0443924.126 1.561-.96002924.2835145-1.95501198.4312809-2.956.439-3.237 0-5.17-2.815-5.17-7.53z"/><path id="Shape" d="m10.233 36.021c-.1555366-.6623936-.23372561-1.340591-.233-2.021v-16c0-.5522847.4477153-1 1-1h22c.5522847 0 1 .4477153 1 1v9.645c-.5240387-.0488168-1.0509886.0553921-1.517.3-.289-.33-.567-.67-.832-1.01-1.133-1.452-2.54-3.263-5.068-2.3-.6338136.2338865-1.1343359.7322183-1.371 1.365-.521 1.343-.067 3.459 1.359 6.431-.5226578.8072245-.5401172 1.8415963-.045 2.666 1.1192697 1.8743231 2.5493516 3.5444991 4.229 4.939.175.135.356.258.537.382-1.6743466 1.6573767-3.9360879 2.5855102-6.292 2.582h-6c-4.197284.0172163-7.8426871-2.8847192-8.767-6.979z"/><path id="Shape" d="m56 47c0 1.084-1.4 2-3.05 2h-45.9c-1.65 0-3.05-.916-3.05-2v-1.909c.10544796-.0634555.22699837-.0950586.35-.091h51.3c.1230016-.0040586.244552.0275445.35.091z"/><path id="Shape" d="m21 12c-.5522847 0-1-.4477153-1-1-.0088131-1.15932949.4275017-2.27785595 1.219-3.125.4999069-.49588303.7810925-1.17086442.7810925-1.875s-.2811856-1.37911697-.7810925-1.875c-.7914983-.84714405-1.2278131-1.96567051-1.219-3.125 0-.55228475.4477153-1 1-1s1 .44771525 1 1c-.0066363.70542797.2755433 1.3828758.781 1.875 1.6253757 1.76631178 1.6253757 4.48368822 0 6.25-.5054567.4921242-.7876363 1.169572-.781 1.875 0 .5522847-.4477153 1-1 1z"/><path id="Shape" d="m15 12c-.5522847 0-1-.4477153-1-1-.0088131-1.15932949.4275017-2.27785595 1.219-3.125.4999069-.49588303.7810925-1.17086442.7810925-1.875s-.2811856-1.37911697-.7810925-1.875c-.7914983-.84714405-1.2278131-1.96567051-1.219-3.125 0-.55228475.4477153-1 1-1s1 .44771525 1 1c-.0066363.70542797.2755433 1.3828758.781 1.875 1.6253757 1.76631178 1.6253757 4.48368822 0 6.25-.5054567.4921242-.7876363 1.169572-.781 1.875 0 .5522847-.4477153 1-1 1z"/><path id="Shape" d="m27 12c-.5522847 0-1-.4477153-1-1-.0088131-1.15932949.4275017-2.27785595 1.219-3.125.4999069-.49588303.7810925-1.17086442.7810925-1.875s-.2811856-1.37911697-.7810925-1.875c-.7914983-.84714405-1.2278131-1.96567051-1.219-3.125 0-.55228475.4477153-1 1-1s1 .44771525 1 1c-.0066363.70542797.2755433 1.3828758.781 1.875 1.6253757 1.76631178 1.6253757 4.48368822 0 6.25-.5054567.4921242-.7876363 1.169572-.781 1.875 0 .5522847-.4477153 1-1 1z"/></g></g></svg>