<?xml version="1.0" encoding="iso-8859-1"?>
<!-- Generator: Adobe Illustrator 19.0.0, SVG Export Plug-In . SVG Version: 6.00 Build 0)  -->
<svg version="1.1" id="Layer_1" xmlns="http://www.w3.org/2000/svg" xmlns:xlink="http://www.w3.org/1999/xlink" x="0px" y="0px"
	 viewBox="0 0 512.001 512.001" style="enable-background:new 0 0 512.001 512.001;" xml:space="preserve">
<path style="fill:#AFE1ED;" d="M440.12,302.288L440.12,302.288c-25.421,0-46.03-20.608-46.03-46.03
	c0,25.421-20.608,46.03-46.03,46.03c-25.423,0-46.03-20.608-46.03-46.03c0,25.421-20.609,46.03-46.03,46.03
	s-46.03-20.608-46.03-46.03c0,25.421-20.609,46.03-46.03,46.03s-46.03-20.608-46.03-46.03c0,25.421-20.609,46.03-46.03,46.03l0,0
	c-5.853,0-11.446-1.105-16.597-3.097v198.31h401.433V299.192C451.567,301.184,445.973,302.288,440.12,302.288z"/>
<path style="fill:#F1414F;" d="M256.001,137.441L256.001,137.441c-44.763,0-81.051-36.288-81.051-81.051V14.499h162.103v41.892
	C337.053,101.155,300.765,137.441,256.001,137.441z"/>
<path d="M395.829,376.371c-0.941,0-1.899-0.087-2.842-0.274c-0.913-0.189-1.827-0.478-2.711-0.841
	c-0.87-0.362-1.711-0.797-2.494-1.334c-0.797-0.522-1.537-1.131-2.204-1.798c-0.667-0.667-1.276-1.406-1.812-2.205
	c-0.522-0.783-0.971-1.622-1.334-2.494c-0.362-0.883-0.638-1.798-0.826-2.711c-0.189-0.941-0.275-1.899-0.275-2.842
	c0-0.941,0.088-1.899,0.275-2.827c0.189-0.928,0.464-1.841,0.826-2.71c0.362-0.884,0.812-1.725,1.334-2.508
	c0.536-0.797,1.145-1.537,1.812-2.204c0.667-0.667,1.406-1.277,2.204-1.798c0.783-0.522,1.624-0.971,2.494-1.334
	c0.884-0.362,1.798-0.652,2.711-0.826c1.886-0.377,3.799-0.377,5.669,0c0.929,0.174,1.843,0.464,2.711,0.826
	c0.884,0.362,1.725,0.812,2.508,1.334c0.797,0.521,1.537,1.131,2.204,1.798c0.667,0.667,1.276,1.406,1.798,2.204
	c0.521,0.783,0.971,1.624,1.334,2.508c0.362,0.87,0.637,1.782,0.826,2.71c0.189,0.929,0.289,1.886,0.289,2.827
	c0,0.942-0.1,1.901-0.289,2.842c-0.19,0.913-0.464,1.828-0.826,2.711c-0.362,0.871-0.813,1.711-1.334,2.494
	c-0.522,0.799-1.131,1.538-1.798,2.205c-0.667,0.667-1.406,1.276-2.204,1.798c-0.783,0.536-1.624,0.971-2.508,1.334
	c-0.87,0.362-1.782,0.652-2.711,0.841C397.73,376.284,396.772,376.371,395.829,376.371z"/>
<path style="fill:#FFB085;" d="M71.882,302.289L71.882,302.289c-25.421,0-46.03-20.608-46.03-46.03V173.95
	c0-19.49,15.8-35.289,35.289-35.289h56.77v117.598C117.91,281.68,97.303,302.289,71.882,302.289z"/>
<path style="fill:#C97767;" d="M163.941,302.289L163.941,302.289c-25.421,0-46.03-20.608-46.03-46.03V138.661h92.059v117.598
	C209.971,281.68,189.362,302.289,163.941,302.289z"/>
<g>
	<path style="fill:#FFB085;" d="M256.001,302.289L256.001,302.289c-25.421,0-46.03-20.608-46.03-46.03V138.661h92.059v117.598
		C302.03,281.68,281.423,302.289,256.001,302.289z"/>
	<path style="fill:#FFB085;" d="M486.15,256.259c0,25.421-20.608,46.03-46.03,46.03l0,0c-25.421,0-46.03-20.608-46.03-46.03V138.661
		h56.77c19.49,0,35.289,15.8,35.289,35.289v82.309H486.15z"/>
</g>
<g>
	<path style="fill:#C97767;" d="M348.061,302.289L348.061,302.289c-25.421,0-46.03-20.608-46.03-46.03V138.661h92.059v117.598
		C394.091,281.68,373.482,302.289,348.061,302.289z"/>
	<rect x="118.776" y="361.869" style="fill:#C97767;" width="100.464" height="135.625"/>
</g>
<path d="M450.861,124.162H323.283c15.678-15.566,25.979-36.519,27.911-59.815h17.174c8.006,0,14.499-6.493,14.499-14.499
	s-6.493-14.499-14.499-14.499h-16.818v-20.85C351.551,6.493,345.058,0,337.052,0H174.95c-8.008,0-14.499,6.493-14.499,14.499v41.892
	c0,26.467,10.822,50.45,28.267,67.77H61.141c-27.454,0-49.789,22.336-49.789,49.79v82.309c0,22.013,11.815,41.312,29.433,51.907
	v189.335c0,8.006,6.491,14.499,14.499,14.499h401.433c8.006,0,14.499-6.493,14.499-14.499V308.166
	c17.618-10.595,29.433-29.894,29.433-51.905v-82.309C500.649,146.498,478.315,124.162,450.861,124.162z M379.592,256.257
	c0,15.756-11.617,28.85-26.736,31.167c-0.522,0.08-1.047,0.148-1.576,0.202c-1.058,0.107-2.133,0.162-3.219,0.162
	c-1.086,0-2.16-0.055-3.219-0.162c-0.529-0.054-1.054-0.12-1.576-0.202c-15.118-2.317-26.735-15.411-26.735-31.167V153.16h63.061
	V256.257z M256.001,287.789c-1.087,0-2.16-0.055-3.219-0.162c-0.529-0.054-1.054-0.12-1.576-0.202
	c-15.118-2.317-26.735-15.411-26.735-31.167V153.16h63.062v103.097c0,15.756-11.617,28.85-26.736,31.167
	c-0.522,0.08-1.047,0.148-1.576,0.202C258.162,287.733,257.087,287.789,256.001,287.789z M163.941,287.789
	c-1.087,0-2.16-0.055-3.219-0.162c-0.529-0.054-1.054-0.12-1.576-0.202c-15.118-2.317-26.735-15.411-26.735-31.167
	c0-0.004,0-0.009,0-0.009V153.16h63.062v103.097c0,15.756-11.617,28.85-26.735,31.167c-0.522,0.08-1.047,0.148-1.576,0.202
	C166.103,287.733,165.028,287.789,163.941,287.789z M189.449,28.998h133.105v27.393c0,36.697-29.855,66.551-66.552,66.551
	s-66.552-29.855-66.552-66.551V28.998z M40.35,173.952c0-11.464,9.327-20.792,20.79-20.792h42.271v103.099
	c0,4.889-1.118,9.522-3.113,13.657c-4.434,9.188-13.196,15.911-23.622,17.509c-0.522,0.08-1.047,0.148-1.576,0.202
	c-1.058,0.107-2.133,0.162-3.219,0.162c-0.908,0-1.811-0.048-2.71-0.123c-0.1-0.009-0.2-0.013-0.3-0.023
	c-0.863-0.083-1.718-0.204-2.568-0.357c-0.117-0.022-0.235-0.041-0.352-0.062c-0.847-0.162-1.686-0.36-2.518-0.592
	c-0.104-0.029-0.207-0.058-0.31-0.088c-0.832-0.241-1.657-0.516-2.472-0.826c-11.856-4.535-20.3-16.024-20.3-29.455L40.35,173.952
	L40.35,173.952z M133.275,483.002V376.372h69.893h1.569v106.629H133.275z M442.218,316.752v166.25H233.735V376.372h118.596
	c8.006,0,14.499-6.493,14.499-14.499s-6.493-14.499-14.499-14.499H219.236h-16.068h-84.392c-8.008,0-14.499,6.493-14.499,14.499
	v121.129H69.784v-166.25c0.697,0.025,1.396,0.035,2.097,0.035c1.1,0,2.192-0.033,3.278-0.091c0.36-0.019,0.715-0.057,1.071-0.081
	c0.724-0.052,1.447-0.104,2.163-0.181c0.42-0.045,0.835-0.106,1.253-0.159c0.648-0.083,1.295-0.168,1.937-0.273
	c0.438-0.071,0.87-0.154,1.305-0.233c0.615-0.115,1.227-0.232,1.836-0.362c0.438-0.096,0.873-0.199,1.308-0.303
	c0.596-0.144,1.189-0.294,1.778-0.455c0.432-0.117,0.861-0.239,1.289-0.367c0.587-0.174,1.17-0.36,1.749-0.551
	c0.415-0.138,0.829-0.274,1.241-0.422c0.587-0.209,1.167-0.431,1.747-0.657c0.391-0.152,0.783-0.302,1.17-0.463
	c0.603-0.251,1.198-0.518,1.792-0.787c0.349-0.158,0.703-0.31,1.048-0.476c0.676-0.322,1.34-0.664,2.002-1.012
	c0.251-0.132,0.507-0.254,0.757-0.389c0.908-0.492,1.802-1.003,2.681-1.54c0.146-0.09,0.287-0.187,0.434-0.277
	c0.726-0.451,1.446-0.912,2.15-1.392c0.297-0.203,0.584-0.418,0.877-0.625c0.544-0.384,1.087-0.77,1.617-1.172
	c0.326-0.248,0.645-0.506,0.967-0.76c0.481-0.38,0.96-0.761,1.43-1.156c0.332-0.28,0.657-0.567,0.983-0.853
	c0.442-0.389,0.883-0.78,1.314-1.182c0.326-0.303,0.648-0.612,0.967-0.922c0.415-0.403,0.824-0.812,1.227-1.227
	c0.315-0.323,0.625-0.648,0.932-0.979c0.393-0.422,0.777-0.851,1.157-1.285c0.188-0.213,0.387-0.418,0.571-0.635
	c0.174,0.203,0.36,0.393,0.535,0.594c0.4,0.455,0.805,0.908,1.216,1.351c0.29,0.31,0.584,0.618,0.88,0.922
	c0.422,0.434,0.85,0.861,1.283,1.282c0.303,0.294,0.609,0.587,0.918,0.876c0.449,0.419,0.906,0.826,1.369,1.231
	c0.309,0.271,0.618,0.542,0.932,0.808c0.49,0.412,0.989,0.811,1.492,1.206c0.302,0.239,0.6,0.481,0.906,0.713
	c0.555,0.422,1.125,0.826,1.695,1.228c0.268,0.188,0.531,0.386,0.802,0.571c0.754,0.513,1.521,1.008,2.298,1.488
	c0.097,0.059,0.19,0.125,0.287,0.184c0.886,0.541,1.786,1.057,2.701,1.551c0.22,0.12,0.449,0.228,0.671,0.344
	c0.689,0.362,1.382,0.719,2.086,1.054c0.332,0.158,0.67,0.303,1.005,0.455c0.608,0.275,1.216,0.55,1.836,0.806
	c0.377,0.157,0.76,0.302,1.14,0.451c0.589,0.231,1.18,0.457,1.778,0.668c0.403,0.144,0.811,0.278,1.218,0.413
	c0.586,0.194,1.176,0.381,1.769,0.558c0.422,0.125,0.847,0.245,1.273,0.362c0.594,0.162,1.192,0.315,1.792,0.458
	c0.431,0.103,0.863,0.206,1.296,0.3c0.612,0.133,1.228,0.251,1.846,0.365c0.432,0.08,0.861,0.162,1.296,0.232
	c0.644,0.104,1.293,0.19,1.943,0.273c0.416,0.054,0.829,0.115,1.247,0.159c0.718,0.077,1.443,0.13,2.168,0.181
	c0.357,0.026,0.71,0.062,1.069,0.081c1.086,0.059,2.178,0.091,3.278,0.091c1.1,0,2.192-0.033,3.278-0.091
	c0.358-0.019,0.712-0.057,1.07-0.081c0.725-0.052,1.448-0.104,2.166-0.181c0.419-0.045,0.832-0.106,1.248-0.159
	c0.65-0.084,1.299-0.17,1.941-0.273c0.435-0.07,0.867-0.152,1.299-0.233c0.616-0.113,1.231-0.232,1.841-0.364
	c0.436-0.094,0.868-0.197,1.301-0.302c0.599-0.145,1.195-0.296,1.788-0.457c0.428-0.117,0.854-0.238,1.279-0.364
	c0.592-0.177,1.179-0.362,1.763-0.555c0.41-0.136,0.821-0.273,1.227-0.416c0.594-0.212,1.18-0.435,1.766-0.664
	c0.384-0.151,0.771-0.297,1.153-0.455c0.612-0.254,1.216-0.525,1.818-0.799c0.341-0.154,0.686-0.302,1.022-0.463
	c0.692-0.331,1.372-0.68,2.049-1.035c0.235-0.123,0.476-0.238,0.71-0.364c0.912-0.493,1.811-1.008,2.692-1.546
	c0.117-0.071,0.229-0.149,0.345-0.222c0.757-0.468,1.505-0.948,2.239-1.45c0.283-0.193,0.557-0.397,0.835-0.594
	c0.558-0.394,1.115-0.79,1.66-1.203c0.316-0.239,0.622-0.487,0.932-0.732c0.493-0.39,0.984-0.781,1.466-1.185
	c0.322-0.271,0.637-0.548,0.954-0.826c0.454-0.397,0.903-0.799,1.346-1.209c0.318-0.296,0.629-0.594,0.94-0.896
	c0.425-0.413,0.844-0.831,1.257-1.257c0.304-0.313,0.608-0.629,0.905-0.948c0.403-0.434,0.797-0.874,1.187-1.319
	c0.181-0.207,0.374-0.405,0.552-0.613c0.18,0.21,0.371,0.407,0.552,0.613c0.39,0.445,0.784,0.886,1.187,1.319
	c0.299,0.32,0.6,0.635,0.905,0.948c0.413,0.425,0.832,0.844,1.257,1.257c0.31,0.302,0.623,0.602,0.94,0.896
	c0.442,0.412,0.892,0.812,1.346,1.209c0.316,0.277,0.632,0.555,0.954,0.826c0.481,0.405,0.971,0.796,1.466,1.185
	c0.31,0.245,0.618,0.494,0.932,0.732c0.544,0.413,1.102,0.809,1.66,1.203c0.28,0.197,0.552,0.402,0.835,0.594
	c0.734,0.5,1.482,0.982,2.239,1.45c0.116,0.073,0.228,0.151,0.345,0.222c0.883,0.538,1.782,1.053,2.692,1.546
	c0.233,0.126,0.474,0.241,0.71,0.364c0.677,0.355,1.357,0.706,2.049,1.035c0.336,0.161,0.681,0.307,1.022,0.463
	c0.602,0.274,1.205,0.545,1.818,0.799c0.381,0.158,0.767,0.304,1.153,0.455c0.586,0.229,1.172,0.454,1.766,0.664
	c0.406,0.145,0.816,0.28,1.227,0.416c0.584,0.193,1.17,0.38,1.763,0.555c0.423,0.126,0.85,0.246,1.279,0.364
	c0.592,0.161,1.187,0.313,1.788,0.457c0.432,0.103,0.866,0.206,1.301,0.302c0.61,0.132,1.225,0.251,1.841,0.364
	c0.432,0.08,0.864,0.162,1.299,0.233c0.644,0.104,1.292,0.19,1.941,0.273c0.416,0.054,0.829,0.115,1.248,0.159
	c0.718,0.077,1.441,0.13,2.166,0.181c0.357,0.026,0.71,0.062,1.07,0.081c1.086,0.059,2.178,0.091,3.278,0.091
	c1.1,0,2.192-0.033,3.278-0.091c0.36-0.019,0.713-0.057,1.072-0.081c0.725-0.052,1.448-0.104,2.165-0.181
	c0.419-0.045,0.834-0.106,1.25-0.159c0.65-0.084,1.298-0.17,1.94-0.273c0.436-0.07,0.868-0.152,1.302-0.233
	c0.616-0.113,1.23-0.232,1.84-0.364c0.436-0.094,0.87-0.197,1.303-0.302c0.597-0.144,1.192-0.296,1.783-0.455
	c0.429-0.117,0.858-0.239,1.283-0.365c0.59-0.175,1.174-0.361,1.756-0.554c0.412-0.136,0.824-0.273,1.232-0.419
	c0.592-0.21,1.176-0.434,1.76-0.663c0.387-0.151,0.774-0.299,1.157-0.457c0.61-0.252,1.211-0.523,1.811-0.796
	c0.344-0.155,0.69-0.305,1.029-0.465c0.689-0.329,1.366-0.677,2.04-1.031c0.238-0.125,0.481-0.241,0.718-0.368
	c0.911-0.493,1.808-1.008,2.69-1.544c0.128-0.078,0.249-0.162,0.376-0.241c0.747-0.463,1.485-0.937,2.21-1.431
	c0.286-0.194,0.561-0.4,0.842-0.6c0.555-0.393,1.111-0.786,1.651-1.198c0.318-0.242,0.628-0.493,0.941-0.739
	c0.49-0.387,0.979-0.776,1.456-1.179c0.325-0.273,0.642-0.552,0.961-0.832c0.451-0.394,0.899-0.795,1.338-1.203
	c0.319-0.297,0.634-0.599,0.945-0.902c0.423-0.412,0.842-0.828,1.254-1.253c0.306-0.315,0.609-0.631,0.906-0.951
	c0.403-0.432,0.796-0.873,1.186-1.318c0.183-0.207,0.374-0.405,0.554-0.615c0.178,0.209,0.37,0.406,0.551,0.612
	c0.391,0.447,0.787,0.887,1.19,1.322c0.297,0.319,0.599,0.634,0.902,0.945c0.415,0.426,0.834,0.845,1.261,1.26
	c0.31,0.3,0.621,0.599,0.937,0.893c0.442,0.412,0.893,0.815,1.348,1.214c0.315,0.275,0.629,0.554,0.95,0.824
	c0.483,0.405,0.974,0.797,1.47,1.187c0.309,0.244,0.615,0.492,0.928,0.729c0.547,0.415,1.108,0.813,1.669,1.209
	c0.277,0.196,0.547,0.397,0.826,0.589c0.741,0.505,1.496,0.99,2.262,1.463c0.109,0.067,0.213,0.141,0.322,0.207
	c0.884,0.539,1.783,1.056,2.697,1.548c0.229,0.125,0.465,0.236,0.696,0.358c0.681,0.358,1.366,0.71,2.063,1.042
	c0.335,0.159,0.677,0.306,1.015,0.46c0.605,0.274,1.209,0.547,1.824,0.802c0.38,0.157,0.764,0.303,1.148,0.454
	c0.587,0.229,1.174,0.454,1.77,0.666c0.405,0.144,0.813,0.28,1.222,0.415c0.586,0.193,1.173,0.38,1.766,0.557
	c0.423,0.126,0.848,0.246,1.276,0.362c0.593,0.162,1.19,0.313,1.789,0.458c0.432,0.104,0.863,0.206,1.299,0.302
	c0.61,0.132,1.227,0.251,1.844,0.364c0.432,0.08,0.863,0.162,1.298,0.232c0.644,0.104,1.293,0.19,1.943,0.273
	c0.416,0.054,0.829,0.115,1.247,0.159c0.718,0.077,1.441,0.13,2.166,0.181c0.357,0.026,0.71,0.062,1.07,0.081
	c1.086,0.059,2.178,0.091,3.278,0.091c1.1,0,2.192-0.033,3.278-0.091c0.36-0.019,0.713-0.057,1.071-0.081
	c0.725-0.052,1.448-0.104,2.165-0.181c0.419-0.045,0.834-0.106,1.25-0.159c0.65-0.084,1.298-0.17,1.94-0.273
	c0.436-0.07,0.868-0.152,1.302-0.233c0.616-0.113,1.23-0.232,1.84-0.364c0.436-0.094,0.87-0.197,1.303-0.302
	c0.597-0.144,1.192-0.296,1.783-0.455c0.429-0.117,0.858-0.239,1.283-0.365c0.59-0.175,1.174-0.361,1.756-0.554
	c0.412-0.136,0.824-0.273,1.232-0.419c0.592-0.21,1.176-0.434,1.76-0.663c0.387-0.151,0.774-0.299,1.157-0.457
	c0.61-0.252,1.211-0.523,1.811-0.796c0.344-0.155,0.69-0.304,1.029-0.465c0.689-0.329,1.366-0.677,2.04-1.031
	c0.238-0.125,0.481-0.241,0.718-0.368c0.911-0.493,1.808-1.008,2.69-1.544c0.128-0.078,0.249-0.162,0.376-0.241
	c0.747-0.463,1.485-0.937,2.21-1.431c0.286-0.194,0.561-0.4,0.842-0.6c0.555-0.393,1.111-0.786,1.651-1.198
	c0.318-0.242,0.628-0.493,0.941-0.739c0.49-0.387,0.979-0.776,1.456-1.179c0.325-0.273,0.642-0.552,0.961-0.832
	c0.451-0.394,0.899-0.795,1.338-1.203c0.319-0.297,0.634-0.599,0.945-0.902c0.423-0.412,0.842-0.828,1.254-1.253
	c0.306-0.315,0.609-0.631,0.906-0.951c0.403-0.432,0.796-0.873,1.186-1.318c0.183-0.207,0.374-0.405,0.554-0.615
	c0.178,0.209,0.37,0.406,0.551,0.612c0.391,0.447,0.787,0.887,1.19,1.322c0.297,0.319,0.599,0.634,0.902,0.945
	c0.415,0.426,0.834,0.845,1.261,1.26c0.31,0.3,0.621,0.599,0.937,0.893c0.442,0.412,0.893,0.815,1.348,1.214
	c0.315,0.275,0.629,0.554,0.95,0.824c0.483,0.405,0.974,0.797,1.47,1.187c0.309,0.244,0.615,0.492,0.928,0.729
	c0.547,0.415,1.108,0.813,1.669,1.209c0.277,0.196,0.547,0.397,0.826,0.589c0.741,0.505,1.496,0.99,2.262,1.463
	c0.109,0.067,0.213,0.141,0.322,0.207c0.884,0.539,1.783,1.056,2.697,1.549c0.229,0.125,0.465,0.236,0.696,0.358
	c0.681,0.358,1.366,0.71,2.063,1.042c0.335,0.16,0.677,0.306,1.015,0.46c0.605,0.274,1.209,0.547,1.824,0.802
	c0.38,0.157,0.764,0.303,1.148,0.454c0.587,0.229,1.174,0.454,1.77,0.666c0.405,0.144,0.813,0.28,1.222,0.415
	c0.586,0.193,1.173,0.38,1.766,0.557c0.423,0.126,0.848,0.246,1.276,0.362c0.593,0.162,1.19,0.313,1.789,0.458
	c0.432,0.104,0.863,0.206,1.299,0.302c0.61,0.132,1.227,0.251,1.844,0.364c0.432,0.08,0.863,0.162,1.298,0.232
	c0.644,0.104,1.293,0.19,1.943,0.273c0.416,0.054,0.829,0.115,1.247,0.159c0.718,0.077,1.441,0.13,2.166,0.181
	c0.357,0.026,0.71,0.062,1.07,0.081c1.086,0.059,2.178,0.091,3.278,0.091C440.82,316.787,441.521,316.775,442.218,316.752z
	 M471.651,256.259c0,13.425-8.437,24.909-20.284,29.449c-0.822,0.315-1.653,0.592-2.492,0.835c-0.1,0.029-0.2,0.058-0.3,0.086
	c-0.834,0.233-1.676,0.431-2.524,0.593c-0.116,0.022-0.233,0.042-0.351,0.062c-0.851,0.152-1.707,0.274-2.569,0.357
	c-0.099,0.01-0.199,0.014-0.299,0.023c-0.899,0.077-1.802,0.125-2.711,0.125c-1.087,0-2.16-0.055-3.219-0.162
	c-0.529-0.054-1.054-0.12-1.576-0.202c-15.118-2.317-26.735-15.411-26.735-31.167V153.16h42.271c11.463,0,20.79,9.327,20.79,20.792
	V256.259z"/>
<g>
</g>
<g>
</g>
<g>
</g>
<g>
</g>
<g>
</g>
<g>
</g>
<g>
</g>
<g>
</g>
<g>
</g>
<g>
</g>
<g>
</g>
<g>
</g>
<g>
</g>
<g>
</g>
<g>
</g>
</svg>
