<?xml version="1.0" encoding="iso-8859-1"?>
<!-- Generator: Adobe Illustrator 19.0.0, SVG Export Plug-In . SVG Version: 6.00 Build 0)  -->
<svg version="1.1" id="Layer_1" xmlns="http://www.w3.org/2000/svg" xmlns:xlink="http://www.w3.org/1999/xlink" x="0px" y="0px"
	 viewBox="0 0 512 512" style="enable-background:new 0 0 512 512;" xml:space="preserve">
<g>
	<rect x="23.349" y="193.489" style="fill:#F2F2F2;" width="465.298" height="243.639"/>
	<rect x="10.199" y="437.117" style="fill:#F2F2F2;" width="491.602" height="31.934"/>
</g>
<rect x="337.93" y="273.838" style="fill:#FFAD61;" width="102.165" height="163.289"/>
<polygon style="fill:#73C1DD;" points="282.059,363.858 291.404,363.858 291.404,260.683 73.925,260.683 73.925,363.858 
	81.033,363.858 181.546,263.345 "/>
<polygon style="fill:#FFAD61;" points="181.546,263.345 81.033,363.858 282.059,363.858 "/>
<rect x="11.219" y="141.87" style="fill:#F2F2F2;" width="489.562" height="51.613"/>
<path style="fill:#FFAD61;" d="M279.458,42.942c0,54.639-44.293,98.932-98.932,98.932S81.594,97.581,81.594,42.942
	C81.594,42.942,279.458,42.942,279.458,42.942z"/>
<g>
	<path style="fill:#4D3D36;" d="M81.594,32.743c-5.632,0-10.199,4.567-10.199,10.199c0,36.525,18.039,68.914,45.673,88.733H11.219
		c-5.632,0-10.199,4.567-10.199,10.199v51.613c0,5.632,4.567,10.199,10.199,10.199h1.931v223.236h-2.951
		C4.567,426.923,0,431.49,0,437.122v31.936c0,5.632,4.567,10.199,10.199,10.199h491.602c5.632,0,10.199-4.567,10.199-10.199v-31.936
		c0-5.632-4.567-10.199-10.199-10.199h-2.951V203.687h1.931c5.632,0,10.199-4.567,10.199-10.199v-51.613
		c0-5.632-4.567-10.199-10.199-10.199H243.984c11.433-8.2,21.223-18.553,28.772-30.46c2.528,0.576,5.121,0.882,7.722,0.882
		c19.121,0,34.677-15.556,34.677-34.677S299.6,32.743,280.478,32.743C280.478,32.743,81.594,32.743,81.594,32.743z M294.757,67.42
		c0,7.149-5.285,13.069-12.15,14.102c3.081-8.125,5.218-16.708,6.278-25.619C292.437,58.503,294.757,62.691,294.757,67.42z
		 M92.375,53.141h176.3c-5.075,44.141-42.672,78.534-88.151,78.534S97.45,97.283,92.375,53.141z M21.418,183.288v-31.215h469.163
		v31.215H21.418z M33.548,203.687h444.905v223.236h-28.155V273.832c0-5.632-4.567-10.199-10.199-10.199H337.928
		c-5.632,0-10.199,4.567-10.199,10.199v153.091H33.548V203.687z M348.127,364.953h11.048c5.632,0,10.199-4.567,10.199-10.199
		c0-5.632-4.567-10.199-10.199-10.199h-11.048v-60.524h81.771v142.892h-81.771V364.953z M491.602,447.321v11.537H20.398v-11.537
		H491.602z"/>
	<path style="fill:#4D3D36;" d="M354.117,236.489h101.154c5.632,0,10.199-4.567,10.199-10.199s-4.567-10.199-10.199-10.199H354.117
		c-5.632,0-10.199,4.567-10.199,10.199S348.485,236.489,354.117,236.489z"/>
	<path style="fill:#4D3D36;" d="M332.96,226.29c0-5.632-4.567-10.199-10.199-10.199h-8.093c-5.632,0-10.199,4.567-10.199,10.199
		s4.567,10.199,10.199,10.199h8.093C328.393,236.489,332.96,231.923,332.96,226.29z"/>
	<path style="fill:#4D3D36;" d="M291.404,374.057c5.632,0,10.199-4.567,10.199-10.199V260.683c0-5.632-4.567-10.199-10.199-10.199
		H73.925c-5.632,0-10.199,4.567-10.199,10.199v103.175c0,5.632,4.567,10.199,10.199,10.199H291.404z M281.204,270.882v77.698
		l-77.698-77.698H281.204z M84.124,270.882h75.46l-75.46,75.46C84.124,346.342,84.124,270.882,84.124,270.882z M105.657,353.659
		l75.889-75.889l75.889,75.889H105.657z"/>
</g>
<g>
</g>
<g>
</g>
<g>
</g>
<g>
</g>
<g>
</g>
<g>
</g>
<g>
</g>
<g>
</g>
<g>
</g>
<g>
</g>
<g>
</g>
<g>
</g>
<g>
</g>
<g>
</g>
<g>
</g>
</svg>
