<?xml version="1.0" encoding="iso-8859-1"?>
<!-- Generator: Adobe Illustrator 19.0.0, SVG Export Plug-In . SVG Version: 6.00 Build 0)  -->
<svg version="1.1" id="Layer_1" xmlns="http://www.w3.org/2000/svg" xmlns:xlink="http://www.w3.org/1999/xlink" x="0px" y="0px"
	 viewBox="0 0 512 512" style="enable-background:new 0 0 512 512;" xml:space="preserve">
<g>
	<rect x="194.037" y="427.574" style="fill:#74D1D2;" width="293.452" height="76.255"/>
	<path style="fill:#74D1D2;" d="M194.037,146.443v76.255H24.511v-96.321c11.318,12.332,27.561,20.066,45.622,20.066
		c34.217,0,61.952-27.801,61.952-62.017C132.085,118.642,159.82,146.443,194.037,146.443z"/>
</g>
<g>
	<path style="fill:#C8FEFF;" d="M487.489,126.377v301.198H194.037V222.698v-76.255c34.228,0,61.963-27.801,61.963-62.017
		c0,34.217,27.735,62.017,61.963,62.017c34.217,0,61.952-27.801,61.952-62.017c0,34.217,27.735,62.017,61.952,62.017
		C459.928,146.443,476.171,138.708,487.489,126.377z"/>
	<rect x="24.511" y="222.698" style="fill:#C8FEFF;" width="169.526" height="281.132"/>
</g>
<polygon style="fill:#FC9851;" points="487.489,8.17 24.511,8.17 8.17,84.426 503.83,84.426 "/>
<g>
	<path style="fill:#B75548;" d="M379.915,84.426H503.83c0,16.155-6.188,30.894-16.351,41.94
		c-11.308,12.342-27.55,20.077-45.612,20.077C407.65,146.443,379.915,118.642,379.915,84.426z"/>
	<path style="fill:#B75548;" d="M132.085,84.426H256c0,34.217-27.735,62.017-61.963,62.017
		C159.82,146.443,132.085,118.642,132.085,84.426z"/>
</g>
<g>
	<path style="fill:#DC774E;" d="M256,84.426h123.915c0,34.217-27.735,62.017-61.952,62.017C283.735,146.443,256,118.642,256,84.426z
		"/>
	<path style="fill:#DC774E;" d="M8.17,84.426h123.915c0,34.217-27.735,62.017-61.952,62.017c-18.062,0-34.304-7.734-45.612-20.077
		C14.358,115.32,8.17,100.581,8.17,84.426z"/>
</g>
<path style="fill:#FFFFFF;" d="M257.353,240.713v27.234c0,36.098,29.264,65.362,65.362,65.362s65.362-29.264,65.362-65.362v-27.234
	L257.353,240.713L257.353,240.713z"/>
<g>
	<path style="fill:#700D00;" d="M419.805,232.543H257.353c-4.512,0-8.17,3.658-8.17,8.17v27.234
		c0,40.546,32.986,73.532,73.532,73.532c29.882,0,55.659-17.918,67.149-43.573h1.634c22.526,0,40.851-18.325,40.851-40.851
		c0-7.181-1.892-14.248-5.472-20.434C425.416,234.097,422.721,232.543,419.805,232.543z M379.906,267.947
		c0,31.536-25.656,57.191-57.191,57.191s-57.191-25.656-57.191-57.191v-19.064h114.383V267.947z M395.03,281.312
		c0.8-4.336,1.217-8.802,1.217-13.365v-19.064h18.364c0.921,2.609,1.397,5.375,1.397,8.171
		C416.009,269.371,406.877,279.594,395.03,281.312z"/>
	<path style="fill:#700D00;" d="M512,84.426c0-0.289-0.016-0.574-0.045-0.854c-0.003-0.032-0.011-0.063-0.014-0.095
		c-0.029-0.253-0.068-0.502-0.12-0.747c-0.002-0.014-16.343-76.269-16.343-76.269C494.672,2.692,491.342,0,487.489,0H24.511
		c-3.853,0-7.182,2.692-7.988,6.459L0.182,82.714c-0.054,0.259-0.093,0.51-0.122,0.761c-0.003,0.032-0.011,0.063-0.014,0.095
		C0.016,83.851,0,84.137,0,84.426c0,17.101,6.148,32.788,16.34,44.978V503.83c0,4.512,3.658,8.17,8.17,8.17h462.979
		c4.512,0,8.17-3.658,8.17-8.17V129.403C505.852,117.213,512,101.526,512,84.426z M479.319,419.404H202.213V154.135
		c23.333-2.722,43.208-16.945,53.787-36.85c11.795,22.191,35.142,37.332,61.957,37.332c26.816,0,50.163-15.14,61.957-37.332
		c11.794,22.191,35.142,37.332,61.957,37.332c13.764,0,26.603-4.006,37.447-10.889V419.404z M194.043,138.277
		c-26.885,0-49.225-19.85-53.168-45.681h106.338C243.268,118.427,220.928,138.277,194.043,138.277z M16.972,92.596h106.325
		c-3.943,25.831-26.284,45.681-53.168,45.681S20.917,118.425,16.972,92.596z M32.681,143.728
		c10.844,6.885,23.683,10.889,37.447,10.889c26.816,0,50.163-15.14,61.957-37.332c10.579,19.904,30.454,34.128,53.787,36.85v60.397
		H32.681V143.728z M441.872,138.277c-26.885,0-49.225-19.85-53.168-45.681h106.325C491.083,118.425,468.756,138.277,441.872,138.277
		z M31.115,16.34h449.769l12.839,59.915H379.915c-4.512,0-8.17,3.658-8.17,8.17c0,29.694-24.128,53.852-53.787,53.852
		c-26.885,0-49.225-19.85-53.168-45.681h82.445c4.512,0,8.17-3.658,8.17-8.17s-3.658-8.17-8.17-8.17H18.276L31.115,16.34z
		 M32.681,230.873h153.191V495.66H32.681V230.873z M202.213,495.66v-59.915h277.106v59.915H202.213z"/>
</g>
<g>
</g>
<g>
</g>
<g>
</g>
<g>
</g>
<g>
</g>
<g>
</g>
<g>
</g>
<g>
</g>
<g>
</g>
<g>
</g>
<g>
</g>
<g>
</g>
<g>
</g>
<g>
</g>
<g>
</g>
</svg>
