<svg height="512pt" viewBox="0 -4 512.00003 512" width="512pt" xmlns="http://www.w3.org/2000/svg"><path d="m366.933594 59.734375-110.933594-56.550781c-2.894531-2.070313-6.359375-3.17968775-9.914062-3.183594h-108.539063c-3.554687.00390625-7.019531 1.113281-9.914063 3.183594l-119.097656 56.550781 179.199219 8.53125zm0 0" fill="#cbb292"/><path d="m34.132812 76.800781h307.199219v375.464844h-307.199219zm0 0" fill="#fdd7ad"/><path d="m366.933594 59.734375v59.730469c0 14.140625-11.460938 25.601562-25.601563 25.601562-14.136719 0-25.597656-11.460937-25.597656-25.601562h-51.199219c0 14.140625-11.464844 25.601562-25.601562 25.601562-14.140625 0-25.601563-11.460937-25.601563-25.601562h-51.199219c0 14.140625-11.460937 25.601562-25.597656 25.601562-14.140625 0-25.601562-11.460937-25.601562-25.601562h-51.199219c0 14.140625-11.460937 25.601562-25.601563 25.601562-14.136718 0-25.597656-11.460937-25.597656-25.601562v-59.730469zm0 0" fill="#cc4b4c"/><g fill="#e6e7e8"><path d="m59.734375 59.734375h51.199219v59.730469c0 14.140625-11.460938 25.601562-25.601563 25.601562-14.136719 0-25.597656-11.460937-25.597656-25.601562zm0 0"/><path d="m162.132812 59.734375h51.199219v59.730469c0 14.140625-11.460937 25.601562-25.597656 25.601562-14.140625 0-25.601563-11.460937-25.601563-25.601562zm0 0"/><path d="m264.535156 59.734375h51.199219v59.730469c0 14.140625-11.460937 25.601562-25.601563 25.601562-14.136718 0-25.597656-11.460937-25.597656-25.601562zm0 0"/></g><path d="m34.132812 426.667969h307.199219v68.265625h-307.199219zm0 0" fill="#cbb292"/><path d="m76.800781 290.132812h85.332031c4.714844 0 8.535157 3.820313 8.535157 8.535157v196.265625h-102.402344v-196.265625c0-4.714844 3.820313-8.535157 8.535156-8.535157zm0 0" fill="#7f6e5d"/><path d="m76.800781 221.867188h85.332031c4.714844 0 8.535157 3.820312 8.535157 8.53125v17.066406c0 4.714844-3.820313 8.535156-8.535157 8.535156h-85.332031c-4.714843 0-8.535156-3.820312-8.535156-8.535156v-17.066406c0-4.710938 3.820313-8.53125 8.535156-8.53125zm0 0" fill="#cbb292"/><path d="m213.332031 221.867188h85.335938c4.710937 0 8.53125 3.820312 8.53125 8.53125v85.335937c0 4.710937-3.820313 8.53125-8.53125 8.53125h-85.335938c-4.710937 0-8.53125-3.820313-8.53125-8.53125v-85.335937c0-4.710938 3.820313-8.53125 8.53125-8.53125zm0 0" fill="#90bae1"/><path d="m238.933594 469.332031h-8.535156c-4.710938 0-8.53125-3.820312-8.53125-8.53125 0-4.714843 3.820312-8.535156 8.53125-8.535156h8.535156c4.710937 0 8.53125 3.820313 8.53125 8.535156 0 4.710938-3.820313 8.53125-8.53125 8.53125zm0 0" fill="#7f6e5d"/><path d="m290.132812 469.332031h-8.53125c-4.714843 0-8.535156-3.820312-8.535156-8.53125 0-4.714843 3.820313-8.535156 8.535156-8.535156h8.53125c4.714844 0 8.535157 3.820313 8.535157 8.535156 0 4.710938-3.820313 8.53125-8.535157 8.53125zm0 0" fill="#7f6e5d"/><path d="m102.398438 392.535156c-4.710938 0-8.53125-3.824218-8.53125-8.535156v-8.535156c0-4.710938 3.820312-8.53125 8.53125-8.53125 4.714843 0 8.535156 3.820312 8.535156 8.53125v8.535156c0 4.710938-3.820313 8.535156-8.535156 8.535156zm0 0" fill="#fff"/><path d="m392.535156 503.464844c-4.714844 0-8.535156-3.820313-8.535156-8.53125v-230.398438c0-4.714844 3.820312-8.535156 8.535156-8.535156 4.710938 0 8.53125 3.820312 8.53125 8.535156v230.398438c0 4.710937-3.820312 8.53125-8.53125 8.53125zm0 0" fill="#bdc3c7"/><path d="m486.398438 341.332031c-4.710938 0-8.53125 3.820313-8.53125 8.535157v76.800781h-42.667969c-9.425781 0-17.066407 7.640625-17.066407 17.066406v51.199219c0 4.710937 3.820313 8.53125 8.535157 8.53125 4.710937 0 8.53125-3.820313 8.53125-8.53125v-51.199219h42.667969v51.199219c0 4.710937 3.820312 8.53125 8.53125 8.53125 4.714843 0 8.535156-3.820313 8.535156-8.53125v-145.066406c0-4.714844-3.820313-8.535157-8.535156-8.535157zm0 0" fill="#bdc3c7"/><path d="m341.332031 264.535156h102.402344s0-51.203125-51.199219-51.203125c-51.203125 0-51.203125 51.203125-51.203125 51.203125zm0 0" fill="#cc4b4c"/><path d="m256 187.734375h-179.199219c-4.714843 0-8.535156-3.820313-8.535156-8.535156 0-4.710938 3.820313-8.53125 8.535156-8.53125h179.199219c4.710938 0 8.535156 3.820312 8.535156 8.53125 0 4.714843-3.824218 8.535156-8.535156 8.535156zm0 0" fill="#cbb292"/><path d="m298.667969 187.734375h-13.867188c-4.714843 0-8.535156-3.820313-8.535156-8.535156 0-4.710938 3.820313-8.53125 8.535156-8.53125h13.867188c4.710937 0 8.53125 3.820312 8.53125 8.53125 0 4.714843-3.820313 8.535156-8.53125 8.535156zm0 0" fill="#cbb292"/><path d="m273.066406 281.601562h-34.132812c-4.714844 0-8.535156 3.820313-8.535156 8.53125 0 4.714844 3.820312 8.535157 8.535156 8.535157h8.53125v25.597656h17.070312v-25.597656h8.53125c4.714844 0 8.535156-3.820313 8.535156-8.535157 0-4.710937-3.820312-8.53125-8.535156-8.53125zm0 0" fill="#59474e"/><path d="m503.464844 503.464844h-494.929688c-4.714844 0-8.535156-3.820313-8.535156-8.53125 0-4.714844 3.820312-8.535156 8.535156-8.535156h494.929688c4.714844 0 8.535156 3.820312 8.535156 8.535156 0 4.710937-3.820312 8.53125-8.535156 8.53125zm0 0" fill="#59474e"/><path d="m452.265625 401.066406h-119.464844c-4.714843 0-8.535156-3.820312-8.535156-8.53125 0-4.714844 3.820313-8.535156 8.535156-8.535156h119.464844c4.714844 0 8.535156 3.820312 8.535156 8.535156 0 4.710938-3.820312 8.53125-8.535156 8.53125zm0 0" fill="#59474e"/></svg>