<svg width="54" height="54" viewBox="0 0 54 54" fill="none" xmlns="http://www.w3.org/2000/svg">
<path d="M27 54C41.9117 54 54 41.9117 54 27C54 12.0883 41.9117 0 27 0C12.0883 0 0 12.0883 0 27C0 41.9117 12.0883 54 27 54Z" fill="#9AF4EF"/>
<path d="M28.2308 18.8008V19.8282H15.6442V18.8008H15.1875V19.8282V23.3086H15.6442H28.2308H28.6875V19.8282V18.8008H28.2308Z" fill="#F26E64"/>
<path d="M32.375 25.5899C41.3437 21.1465 42.1875 24.326 48.0937 27.7897C49.1319 28.3986 52.875 28.3515 52.875 28.3515L49.777 29.5312L41.3437 28.6875L32.375 25.5899Z" fill="#E0B587"/>
<path d="M53.6546 31.3042C53.8792 29.9022 54 28.4654 54 27C54 26.6348 53.9868 26.2727 53.9725 25.9109C49.0781 23.3086 44.4276 26.9473 41.4907 26.9473L53.6546 31.3042Z" fill="#CA9F7C"/>
<path d="M0.0449297 28.5189C1.62348 28.6556 3.44714 28.7711 3.65618 28.6875C4.00781 28.5469 7.59375 25.648 7.59375 25.648C6.13564 25.3049 2.77836 22.6537 0.386859 22.4641C0.137109 23.9396 0 25.4534 0 27C0 27.5099 0.0170859 28.0159 0.0449297 28.5189Z" fill="#E0B587"/>
<path d="M15.1874 26.2038C15.1874 26.2038 12.5273 24.326 10.493 24.326C7.71676 24.326 5.97168 26.9096 0.00299072 27.1219C0.00921338 28.5272 0.12312 29.9066 0.336272 31.2533C2.69276 31.1745 9.99826 30.1402 11.0389 30.2167C12.2343 30.3046 19.6171 29.1094 19.0547 28.6875C18.4921 28.2656 15.1874 26.2038 15.1874 26.2038Z" fill="#CA9F7C"/>
<path d="M0.121948 29.5312C1.39875 43.2553 12.9424 54 27 54C41.0576 54 52.6013 43.2553 53.8781 29.5312C53.8781 29.5312 49.3594 25.8749 41.0626 27C31.6813 28.272 20.1919 27.623 14.3439 27.8437C10.766 27.9787 0.121948 29.5312 0.121948 29.5312Z" fill="#94D75B"/>
<path d="M0.452609 31.9029C15.9258 27.7897 33.0892 28.628 40.6055 28.3183C47.3996 28.0384 51.359 29.2582 53.7202 30.8591C53.7832 30.4196 53.8366 29.9772 53.8781 29.5312C53.8781 29.5312 49.3594 25.8749 41.0626 27C31.6812 28.272 20.1919 27.623 14.3439 27.8437C10.7661 27.9787 0.12207 29.5312 0.12207 29.5312C0.159406 29.9332 0.207395 30.3321 0.262238 30.7286C0.317398 31.1228 0.381207 31.5142 0.452609 31.9029Z" fill="#B0EB81"/>
<path d="M39.6563 36.4394C34.5291 37.4299 18.4571 34.4883 13.6055 35.4375C10.5248 36.0402 6.38279 37.2397 2.7149 38.7902C5.97653 45.4984 11.9301 50.6521 19.1748 52.8435C19.1783 52.8445 19.191 52.8478 19.1927 52.8484C19.3436 52.8941 30.387 51.7566 39.7869 50.7771C44.311 48.338 48.0619 44.6503 50.57 40.1689C48.4054 38.3536 44.579 35.4884 39.6563 36.4394Z" fill="#71BE63"/>
<path d="M37.9688 25.207H28.6875V28.6875H37.9688V25.207Z" fill="#F26E64"/>
<path d="M39.0234 28.6875H24.0886V44.1914H39.0234V28.6875Z" fill="#F3E6D1"/>
<path d="M37.9688 28.6875H28.6875V29.5044H37.9688V28.6875Z" fill="#CCBEBE"/>
<path d="M40.0605 13.9323C40.0605 13.7091 39.8796 13.5281 39.6563 13.5281C39.433 13.5281 39.252 13.7091 39.252 13.9323C39.252 14.0949 39.3493 14.2329 39.4875 14.2972V17.3425H39.825V14.2972C39.9634 14.2329 40.0605 14.0949 40.0605 13.9323Z" fill="#EC6E4D"/>
<path d="M41.3438 21.0394H37.9688V39.18H41.3438V21.0394Z" fill="#FFFCE5"/>
<path d="M39.6562 21.0394H37.9688V39.18H39.6562V21.0394Z" fill="#EBD7C8"/>
<path d="M41.3438 21.0394L39.6562 15.1331L37.9688 21.0394" fill="#FF8562"/>
<path d="M41.3438 23.2147H37.9688V24.032H41.3438V23.2147Z" fill="#D2D2C8"/>
<path d="M39.6562 23.2147H37.9688V24.032H39.6562V23.2147Z" fill="#CCBEBE"/>
<path d="M41.3438 21.0394H37.9688V21.8568H41.3438V21.0394Z" fill="#D2D2C8"/>
<path d="M39.6562 21.0394H37.9688V21.8568H39.6562V21.0394Z" fill="#CCBEBE"/>
<path d="M39.6562 15.1331L37.9688 21.0394H39.6562V15.1331Z" fill="#EC6E4D"/>
<path d="M39.6562 24.9669C39.4014 24.9669 39.1948 25.1735 39.1948 25.4283V26.3932H40.1177V25.4283C40.1177 25.1734 39.9111 24.9669 39.6562 24.9669Z" fill="#63A0B5"/>
<path d="M39.6562 27.2609C39.4014 27.2609 39.1948 27.4675 39.1948 27.7223V28.6871H40.1177V27.7223C40.1177 27.4674 39.9111 27.2609 39.6562 27.2609Z" fill="#63A0B5"/>
<path d="M33.3105 21.58C33.3105 21.3568 33.1296 21.1758 32.9063 21.1758C32.683 21.1758 32.502 21.3568 32.502 21.58C32.502 21.7426 32.5993 21.8806 32.7375 21.9449V24.9902H33.075V21.9449C33.2134 21.8806 33.3105 21.7426 33.3105 21.58Z" fill="#EC6E4D"/>
<path d="M34.5938 28.6871H31.2188V46.8277H34.5938V28.6871Z" fill="#FFFCE5"/>
<path d="M32.9062 28.6871H31.2188V46.8277H32.9062V28.6871Z" fill="#EBD7C8"/>
<path d="M34.5938 28.6871L32.9062 22.7808L31.2188 28.6871" fill="#FF8562"/>
<path d="M34.5938 30.8624H31.2188V31.6797H34.5938V30.8624Z" fill="#D2D2C8"/>
<path d="M32.9062 30.8624H31.2188V31.6797H32.9062V30.8624Z" fill="#CCBEBE"/>
<path d="M34.5938 28.687H31.2188V29.5043H34.5938V28.687Z" fill="#D2D2C8"/>
<path d="M32.9062 28.687H31.2188V29.5043H32.9062V28.687Z" fill="#CCBEBE"/>
<path d="M32.9062 22.7808L31.2188 28.6871H32.9062V22.7808Z" fill="#EC6E4D"/>
<path d="M32.9062 32.6146C32.6514 32.6146 32.4448 32.8212 32.4448 33.0761V34.0409H33.3677V33.0761C33.3677 32.8212 33.1611 32.6146 32.9062 32.6146Z" fill="#63A0B5"/>
<path d="M32.9062 34.9086C32.6514 34.9086 32.4448 35.1152 32.4448 35.37V36.3348H33.3677V35.37C33.3677 35.1152 33.1611 34.9086 32.9062 34.9086Z" fill="#63A0B5"/>
<path d="M28.6875 23.3086H15.1875V38.8125H28.6875V23.3086Z" fill="#F3E6D1"/>
<path d="M28.6875 23.3086H15.1875V24.082H28.6875V23.3086Z" fill="#CCBEBE"/>
<path d="M23.1855 8.92428C23.1855 8.701 23.0046 8.52002 22.7813 8.52002C22.558 8.52002 22.377 8.701 22.377 8.92428C22.377 9.08681 22.4743 9.22487 22.6125 9.2891V12.3344H22.95V9.2892C23.0884 9.22487 23.1855 9.08681 23.1855 8.92428Z" fill="#EC6E4D"/>
<path d="M24.4688 16.0312H21.0938V34.1719H24.4688V16.0312Z" fill="#FFFCE5"/>
<path d="M22.7812 16.0312H21.0938V34.1719H22.7812V16.0312Z" fill="#EBD7C8"/>
<path d="M24.4688 16.0312L22.7812 10.125L21.0938 16.0312" fill="#FF8562"/>
<path d="M24.4688 18.2066H21.0938V19.024H24.4688V18.2066Z" fill="#D2D2C8"/>
<path d="M22.7812 18.2066H21.0938V19.024H22.7812V18.2066Z" fill="#CCBEBE"/>
<path d="M24.4688 16.0312H21.0938V16.8486H24.4688V16.0312Z" fill="#D2D2C8"/>
<path d="M22.7812 16.0312H21.0938V16.8486H22.7812V16.0312Z" fill="#CCBEBE"/>
<path d="M22.7812 10.125L21.0938 16.0312H22.7812V10.125Z" fill="#EC6E4D"/>
<path d="M22.7812 19.9589C22.5264 19.9589 22.3198 20.1655 22.3198 20.4203V21.3851H23.2427V20.4203C23.2427 20.1654 23.0361 19.9589 22.7812 19.9589Z" fill="#63A0B5"/>
<path d="M22.7812 22.2528C22.5264 22.2528 22.3198 22.4594 22.3198 22.7142V23.6791H23.2427V22.7142C23.2427 22.4593 23.0361 22.2528 22.7812 22.2528Z" fill="#63A0B5"/>
<path d="M26.5386 24.8235C26.2838 24.8235 26.0771 25.0302 26.0771 25.285V26.2498H27V25.285C27 25.0301 26.7934 24.8235 26.5386 24.8235Z" fill="#63A0B5"/>
<path d="M26.5386 27.1175C26.2838 27.1175 26.0771 27.3241 26.0771 27.5789V28.5437H27V27.5789C27 27.324 26.7934 27.1175 26.5386 27.1175Z" fill="#63A0B5"/>
<path d="M26.5386 29.4114C26.2838 29.4114 26.0771 29.6181 26.0771 29.8729V30.8377H27V29.8729C27 29.6179 26.7934 29.4114 26.5386 29.4114Z" fill="#63A0B5"/>
<path d="M7.00873 16.624C7.00873 15.0867 8.25495 13.8405 9.79226 13.8405C10.0243 13.8405 10.2461 13.8772 10.4616 13.9307C11.1879 13.1463 12.2177 12.6475 13.371 12.6475C15.5672 12.6475 17.3475 14.4278 17.3475 16.624H7.00873Z" fill="white"/>
<path d="M42.0815 17.8701C42.0815 17.1592 42.6578 16.583 43.3686 16.583C43.4759 16.583 43.5785 16.5999 43.6782 16.6246C44.014 16.2619 44.4903 16.0312 45.0236 16.0312C46.0392 16.0312 46.8625 16.8545 46.8625 17.8701H42.0815Z" fill="white"/>
<path d="M40.6582 11.0896C40.6582 9.80121 39.6356 8.75676 38.3742 8.75676C38.1839 8.75676 38.0018 8.78755 37.8251 8.83238C37.2291 8.17499 36.384 7.75702 35.4378 7.75702C33.6358 7.75702 32.175 9.24909 32.175 11.0897H40.6582V11.0896Z" fill="white"/>
<path d="M34.4483 11.0896C34.4483 10.1874 33.7322 9.45602 32.8488 9.45602C32.7155 9.45602 32.588 9.47754 32.4643 9.50897C32.0469 9.0486 31.4553 8.75592 30.7925 8.75592C29.5307 8.75592 28.5076 9.8008 28.5076 11.0897H34.4483V11.0896Z" fill="white"/>
<g opacity="0.6">
<path opacity="0.6" d="M20.206 13.6677C20.206 12.6368 19.3703 11.8011 18.3395 11.8011C18.184 11.8011 18.0352 11.8257 17.8907 11.8615C17.4036 11.3355 16.713 11.0011 15.9397 11.0011C14.4671 11.0011 13.2733 12.1949 13.2733 13.6676H20.206V13.6677Z" fill="white"/>
</g>
<g opacity="0.6">
<path opacity="0.6" d="M19.6768 7.27006C19.6768 6.34689 20.4252 5.59848 21.3484 5.59848C21.4877 5.59848 21.6209 5.62053 21.7503 5.6527C22.1866 5.18167 22.805 4.88214 23.4976 4.88214C24.8165 4.88214 25.8857 5.95128 25.8857 7.27016H19.6768V7.27006Z" fill="white"/>
</g>
<g opacity="0.6">
<path opacity="0.6" d="M43.7309 19.3008C43.7309 18.5279 44.3575 17.9013 45.1304 17.9013C45.247 17.9013 45.3585 17.9198 45.4669 17.9467C45.832 17.5523 46.3498 17.3015 46.9297 17.3015C48.0338 17.3015 48.9288 18.1966 48.9288 19.3007H43.7309V19.3008Z" fill="white"/>
</g>
<g opacity="0.6">
<path opacity="0.6" d="M35.1559 16.6548C35.1559 15.561 34.2692 14.6744 33.1755 14.6744C33.0104 14.6744 32.8525 14.7005 32.6993 14.7385C32.1825 14.1805 31.4498 13.8256 30.6293 13.8256C29.0669 13.8256 27.8002 15.0922 27.8002 16.6547H35.1559V16.6548Z" fill="white"/>
</g>
<path d="M20.25 32.0625C18.4353 33.8334 16.5235 31.5 14.3437 32.0625C12.6971 32.4874 9.70312 41.0273 7.59374 43.875L6.71814 44.8089C11.6652 50.4408 18.9142 54 27 54C34.4363 54 41.1679 50.992 46.0496 46.1282C44.7187 44.0859 43.127 33.0182 42.7051 31.5417C42.2833 30.0651 38.5312 30.0235 37.9687 30.375C36.7166 31.1576 34.8047 39.6562 32.0625 39.6562C30.4453 39.6562 28.9248 30.2168 27.8437 29.5312C26.1538 28.4596 21.682 30.665 20.25 32.0625Z" fill="#86646A"/>
<path d="M36.7735 39.5859C36.046 37.5713 36.251 33.7085 37.3472 31.2189C36.1122 33.5597 34.3853 39.6562 32.0625 39.6562C31.6372 39.6562 31.2303 39.0487 30.8386 38.1327C31.5263 40.0491 31.9373 40.0474 34.5937 42.0068C38.461 44.8593 39.0234 48.0585 42.0649 49.4061C42.4077 49.1751 42.7441 48.9356 43.0755 48.6895C41.3437 47.25 37.5393 41.7071 36.7735 39.5859Z" fill="#745154"/>
<path d="M28.2047 53.9696C24.7496 50.8393 23.8925 43.2987 22.7812 42.1875C21.0234 40.4297 18.211 42.3281 16.875 39.6563C16.0575 38.0212 15.8907 34.3125 12.6562 34.5938L12.3378 34.6733C10.8047 37.54 9.0027 41.973 7.59374 43.875L6.71814 44.8089C11.6652 50.4409 18.9142 54 27 54C27.404 54 27.8049 53.9871 28.2047 53.9696Z" fill="#745154"/>
<path d="M21.3561 53.4026V50.5324C21.3561 50.3367 21.1974 50.1779 21.0013 50.1779C20.8053 50.1779 20.6465 50.3367 20.6465 50.5324V53.2381C20.8824 53.295 21.118 53.3519 21.3561 53.4026Z" fill="#86646A"/>
<path d="M10.6556 44.8977C10.4862 44.8977 10.349 44.7605 10.349 44.5913V41.2915C10.349 41.1223 10.4862 40.9851 10.6556 40.9851C10.825 40.9851 10.9622 41.1223 10.9622 41.2915V44.5913C10.9622 44.7605 10.825 44.8977 10.6556 44.8977Z" fill="#86646A"/>
<path d="M12.5865 41.0104C12.5865 42.0769 11.722 42.9414 10.6555 42.9414C9.58895 42.9414 8.72443 42.0769 8.72443 41.0104C8.72443 39.9439 9.58895 36.6657 10.6555 36.6657C11.722 36.6657 12.5865 39.944 12.5865 41.0104Z" fill="#43AB5F"/>
<path d="M10.6556 36.6657C10.3879 36.6657 10.133 36.8726 9.90118 37.199C10.8773 37.199 11.6685 40.1994 11.6685 41.1754C11.6685 42.0245 11.0694 42.7324 10.2711 42.9026C10.3953 42.9277 10.5239 42.9414 10.6555 42.9414C11.7219 42.9414 12.5865 42.0769 12.5865 41.0105C12.5866 39.944 11.722 36.6657 10.6556 36.6657Z" fill="#71BE63"/>
<path d="M18.0875 46.5717C17.9336 46.5717 17.809 46.447 17.809 46.2934V43.2959C17.809 43.1422 17.9336 43.0175 18.0875 43.0175C18.2414 43.0175 18.366 43.1422 18.366 43.2959V46.2934C18.366 46.4472 18.2414 46.5717 18.0875 46.5717Z" fill="#86646A"/>
<path d="M19.8415 43.0405C19.8415 44.0092 19.0562 44.7947 18.0873 44.7947C17.1186 44.7947 16.3332 44.0093 16.3332 43.0405C16.3332 42.0718 17.1185 39.0938 18.0873 39.0938C19.0562 39.0938 19.8415 42.0718 19.8415 43.0405Z" fill="#43AB5F"/>
<path d="M18.0873 39.0938C17.8441 39.0938 17.6126 39.2817 17.402 39.5782C18.2887 39.5782 19.0074 42.3038 19.0074 43.1905C19.0074 43.9618 18.4631 44.6048 17.738 44.7594C17.851 44.7822 17.9676 44.7947 18.0872 44.7947C19.0559 44.7947 19.8414 44.0093 19.8414 43.0405C19.8415 42.0718 19.0561 39.0938 18.0873 39.0938Z" fill="#71BE63"/>
<path d="M23.2357 50.2071C23.2357 51.4412 22.2353 52.4416 21.0012 52.4416C19.7672 52.4416 18.7668 51.4412 18.7668 50.2071C18.7668 48.973 19.7672 45.1796 21.0012 45.1796C22.2353 45.1796 23.2357 48.973 23.2357 50.2071Z" fill="#43AB5F"/>
<path d="M21.0013 45.1796C20.6916 45.1796 20.3966 45.419 20.1284 45.7967H20.1285C21.2579 45.7967 22.1735 49.2686 22.1735 50.3982C22.1735 51.3806 21.4801 52.1998 20.5565 52.3968C20.7003 52.4259 20.8489 52.4416 21.0013 52.4416C22.2354 52.4416 23.2358 51.4412 23.2358 50.2072C23.2358 48.9731 22.2354 45.1796 21.0013 45.1796Z" fill="#71BE63"/>
<path d="M12.5669 46.9917C12.3856 46.9917 12.2386 46.8449 12.2386 46.6638V43.1314C12.2386 42.9503 12.3855 42.8035 12.5669 42.8035C12.7482 42.8035 12.8951 42.9503 12.8951 43.1314V46.6637C12.8951 46.8449 12.7483 46.9917 12.5669 46.9917Z" fill="#86646A"/>
<path d="M14.6339 42.8305C14.6339 43.9721 13.7084 44.8976 12.5668 44.8976C11.4252 44.8976 10.4998 43.9721 10.4998 42.8305C10.4998 41.6889 11.4252 38.1797 12.5668 38.1797C13.7084 38.1797 14.6339 41.6889 14.6339 42.8305Z" fill="#43AB5F"/>
<path d="M12.5668 38.1797C12.2802 38.1797 12.0074 38.4012 11.7592 38.7505H11.7593C12.8042 38.7505 13.6512 41.9623 13.6512 43.0072C13.6512 43.916 13.0098 44.6738 12.1553 44.8561C12.2884 44.883 12.4258 44.8975 12.5668 44.8975C13.7084 44.8975 14.6339 43.972 14.6339 42.8304C14.6339 41.689 13.7084 38.1797 12.5668 38.1797Z" fill="#71BE63"/>
<path d="M34.8941 42.9197C34.7338 42.9197 34.6039 42.7898 34.6039 42.6296V39.5062C34.6039 39.3461 34.7337 39.2161 34.8941 39.2161C35.0544 39.2161 35.1844 39.346 35.1844 39.5062V42.6296C35.1844 42.7898 35.0546 42.9197 34.8941 42.9197Z" fill="#86646A"/>
<path d="M36.722 39.2402C36.722 40.2496 35.9036 41.0679 34.8942 41.0679C33.8847 41.0679 33.0664 40.2496 33.0664 39.2402C33.0664 38.2307 33.8847 35.1276 34.8942 35.1276C35.9036 35.1276 36.722 38.2307 36.722 39.2402Z" fill="#43AB5F"/>
<path d="M34.8942 35.1277C34.6408 35.1277 34.3996 35.3236 34.1801 35.6325C35.104 35.6325 35.853 38.4726 35.853 39.3965C35.853 40.2002 35.2857 40.8702 34.5302 41.0314C34.6478 41.0551 34.7694 41.0681 34.8941 41.0681C35.9036 41.0681 36.7219 40.2497 36.7219 39.2403C36.722 38.2307 35.9037 35.1277 34.8942 35.1277Z" fill="#71BE63"/>
<path d="M37.1882 44.947C37.0473 44.947 36.9331 44.8329 36.9331 44.6921V41.9466C36.9331 41.8058 37.0472 41.6917 37.1882 41.6917C37.3291 41.6917 37.4434 41.8058 37.4434 41.9466V44.6921C37.4434 44.8329 37.3292 44.947 37.1882 44.947Z" fill="#86646A"/>
<path d="M38.7948 41.7137C38.7948 42.601 38.0755 43.3203 37.1882 43.3203C36.3009 43.3203 35.5816 42.601 35.5816 41.7137C35.5816 40.8264 36.3009 38.0989 37.1882 38.0989C38.0755 38.0989 38.7948 40.8264 38.7948 41.7137Z" fill="#43AB5F"/>
<path d="M37.1883 38.0978C36.9655 38.0978 36.7534 38.27 36.5606 38.5415C37.3727 38.5415 38.0311 41.038 38.0311 41.8501C38.0311 42.5565 37.5325 43.1455 36.8684 43.2871C36.9718 43.308 37.0787 43.3194 37.1883 43.3194C38.0756 43.3194 38.7949 42.6001 38.7949 41.7128C38.7949 40.8254 38.0756 38.0978 37.1883 38.0978Z" fill="#71BE63"/>
<path d="M29.9268 38.0979C29.6485 36.7966 30.0493 36.813 30.4929 37.188C29.4822 34.3405 28.5651 29.9887 27.8438 29.5313C26.6586 28.7797 24.1078 29.6408 22.1942 30.7038C21.956 30.8807 21.717 31.0635 21.4805 31.2534C19.336 32.9756 20.231 33.5998 21.7266 33.4336C23.3878 33.249 24.6263 36.6657 25.0753 36.6657C26.0509 36.6657 24.9482 34.2398 26.13 34.5787C26.6425 34.7257 29.8378 42.7089 30.4929 42.5568C31.0606 42.4248 30.2432 39.5772 29.9268 38.0979Z" fill="#926E79"/>
<path d="M34.5937 42.007C34.1866 41.7066 33.8376 41.4564 33.5269 41.2342C35.739 43.361 38.2629 49.2101 39.9576 50.6771C40.6754 50.2833 41.3673 49.8505 42.0435 49.3954C39.0216 48.042 38.4515 44.8524 34.5937 42.007Z" fill="#926E79"/>
<path d="M42.7052 31.5417C42.4602 30.6843 41.0936 30.3128 39.8795 30.219C40.5223 30.3024 40.0296 30.7599 40.7637 31.3043C41.502 31.8517 42.0053 32.0626 42.0437 33.2755C42.0783 34.3672 42.339 43.7513 44.3132 47.7088C44.9137 47.2058 45.4951 46.6808 46.0497 46.1283C44.7188 44.0859 43.127 33.0182 42.7052 31.5417Z" fill="#926E79"/>
<path d="M32.4492 45.9557C31.3912 44.8149 31.5703 46.6206 32.0624 47.7088C32.3974 48.4494 33.5126 50.9969 34.7675 52.86C35.7779 52.5568 36.7626 52.1961 37.7193 51.7814C35.7601 50.0428 33.7148 47.3203 32.4492 45.9557Z" fill="#926E79"/>
<path d="M17.4885 24.8235C17.2337 24.8235 17.027 25.0302 17.027 25.285V26.2498H17.9499V25.285C17.9499 25.0301 17.7433 24.8235 17.4885 24.8235Z" fill="#63A0B5"/>
<path d="M17.4885 27.1175C17.2337 27.1175 17.027 27.3241 17.027 27.5789V28.5437H17.9499V27.5789C17.9499 27.324 17.7433 27.1175 17.4885 27.1175Z" fill="#63A0B5"/>
<path d="M18.6931 24.8235C18.4383 24.8235 18.2317 25.0302 18.2317 25.285V26.2498H19.1545V25.285C19.1545 25.0301 18.9479 24.8235 18.6931 24.8235Z" fill="#63A0B5"/>
<path d="M18.6931 27.1175C18.4383 27.1175 18.2317 27.3241 18.2317 27.5789V28.5437H19.1545V27.5789C19.1545 27.324 18.9479 27.1175 18.6931 27.1175Z" fill="#63A0B5"/>
<path d="M17.4885 29.4114C17.2337 29.4114 17.027 29.6181 17.027 29.8729V30.8377H17.9499V29.8729C17.9499 29.6179 17.7433 29.4114 17.4885 29.4114Z" fill="#63A0B5"/>
<path d="M18.6931 29.4114C18.4383 29.4114 18.2317 29.6181 18.2317 29.8729V30.8377H19.1545V29.8729C19.1545 29.6179 18.9479 29.4114 18.6931 29.4114Z" fill="#63A0B5"/>
</svg>
