<svg width="22" height="20" viewBox="0 0 22 20" fill="none" xmlns="http://www.w3.org/2000/svg">
<path d="M17.7678 17.9955H0.59226C0.265184 17.9955 0 18.2607 0 18.5877C0 18.9148 0.265184 19.18 0.59226 19.18H17.7678C18.0949 19.18 18.36 18.9148 18.36 18.5877C18.36 18.2607 18.0949 17.9955 17.7678 17.9955Z" fill="white"/>
<path d="M19.014 9.25964H18.2195C18.3405 8.67493 18.4033 8.07941 18.4033 7.48286C18.4033 7.15579 18.1381 6.8906 17.811 6.8906H0.653928C0.326853 6.8906 0.0616684 7.15579 0.0616684 7.48286C0.0616684 9.84146 1.03978 12.1839 2.74527 13.9098C4.49392 15.6792 6.79781 16.6537 9.23251 16.6537C10.9532 16.6537 12.6082 16.1663 14.0484 15.2563H19.0018C20.655 15.2563 22 13.9112 22 12.258C22 10.6047 20.6605 9.25964 19.014 9.25964ZM17.1959 8.07519C16.8812 12.1403 13.3626 15.4693 9.23251 15.4693C5.10246 15.4693 1.58378 12.1403 1.26906 8.07519H17.1959ZM19.0018 14.0717H15.5557C15.6109 14.0185 15.6655 13.9645 15.7197 13.9098C16.698 12.9198 17.4364 11.7267 17.8888 10.4442H19.014C20.0073 10.4442 20.8155 11.2578 20.8155 12.258C20.8155 13.2581 20.0019 14.0717 19.0018 14.0717Z" fill="white"/>
<path d="M6.12307 5.18793C6.12307 5.515 6.38825 5.78019 6.71533 5.78019C7.04241 5.78019 7.30759 5.515 7.30759 5.18793C7.30759 5.00566 7.33824 4.94059 7.39924 4.81081C7.48556 4.62743 7.60372 4.37639 7.60372 3.9293C7.60372 3.48222 7.48556 3.2311 7.39924 3.0478C7.33824 2.91802 7.30759 2.85295 7.30759 2.67068C7.30759 2.48848 7.33824 2.42334 7.39924 2.29363C7.48556 2.11033 7.60372 1.85928 7.60372 1.41227C7.60372 1.0852 7.33854 0.820015 7.01146 0.820015C6.68438 0.820015 6.4192 1.0852 6.4192 1.41227C6.4192 1.59447 6.38855 1.65962 6.32755 1.78932C6.24123 1.97263 6.12307 2.22367 6.12307 2.67068C6.12307 3.11769 6.24123 3.3688 6.32755 3.55211C6.38855 3.68189 6.4192 3.74696 6.4192 3.9293C6.4192 4.11157 6.38855 4.17672 6.32755 4.3065C6.24123 4.4898 6.12307 4.74085 6.12307 5.18793Z" fill="white"/>
<path d="M8.49211 5.18793C8.49211 5.515 8.7573 5.78019 9.08437 5.78019C9.41144 5.78019 9.67663 5.515 9.67663 5.18793C9.67663 5.00566 9.70728 4.94059 9.76828 4.81081C9.8546 4.62743 9.97276 4.37639 9.97276 3.9293C9.97276 3.48222 9.8546 3.2311 9.76828 3.0478C9.70728 2.91802 9.67663 2.85295 9.67663 2.67068C9.67663 2.48848 9.70728 2.42334 9.76828 2.29363C9.8546 2.11033 9.97276 1.85928 9.97276 1.41227C9.97276 1.0852 9.70757 0.820015 9.3805 0.820015C9.05342 0.820015 8.78824 1.0852 8.78824 1.41227C8.78824 1.59447 8.75759 1.65962 8.69659 1.78932C8.61027 1.97263 8.49211 2.22367 8.49211 2.67068C8.49211 3.11769 8.61027 3.3688 8.69659 3.55211C8.75759 3.68189 8.78824 3.74696 8.78824 3.9293C8.78824 4.11157 8.75759 4.17672 8.69659 4.3065C8.61027 4.4898 8.49211 4.74085 8.49211 5.18793Z" fill="white"/>
<path d="M10.8612 5.18793C10.8612 5.515 11.1263 5.78019 11.4534 5.78019C11.7805 5.78019 12.0457 5.515 12.0457 5.18793C12.0457 5.00566 12.0763 4.94059 12.1373 4.81081C12.2236 4.62743 12.3418 4.37639 12.3418 3.9293C12.3418 3.48222 12.2236 3.2311 12.1373 3.0478C12.0763 2.91802 12.0457 2.85295 12.0457 2.67068C12.0457 2.48848 12.0763 2.42334 12.1373 2.29363C12.2236 2.11033 12.3418 1.85928 12.3418 1.41227C12.3418 1.0852 12.0766 0.820015 11.7495 0.820015C11.4225 0.820015 11.1573 1.0852 11.1573 1.41227C11.1573 1.59447 11.1266 1.65962 11.0656 1.78932C10.9793 1.97263 10.8612 2.22367 10.8612 2.67068C10.8612 3.11769 10.9793 3.3688 11.0656 3.55211C11.1266 3.68189 11.1573 3.74696 11.1573 3.9293C11.1573 4.11157 11.1266 4.17672 11.0656 4.3065C10.9793 4.4898 10.8612 4.74085 10.8612 5.18793Z" fill="white"/>
</svg>
